<mxfile host="app.diagrams.net" agent="Mozilla/5.0 (Macintosh; Intel Mac OS X 10_15_7) AppleWebKit/537.36 (KHTML, like Gecko) Chrome/136.0.0.0 Safari/537.36" version="27.0.6">
  <diagram name="Page-1" id="eA4oAddOpMo20z7Km4Xm">
    <mxGraphModel dx="1426" dy="790" grid="1" gridSize="10" guides="1" tooltips="1" connect="1" arrows="1" fold="1" page="1" pageScale="1" pageWidth="827" pageHeight="1169" math="0" shadow="0">
      <root>
        <mxCell id="0" />
        <mxCell id="1" parent="0" />
        <mxCell id="hMHtxvA4B3zZOopVQEFz-3" value="" style="rounded=1;whiteSpace=wrap;html=1;arcSize=4;movable=1;resizable=1;rotatable=1;deletable=1;editable=1;locked=0;connectable=1;" vertex="1" parent="1">
          <mxGeometry x="160" y="190" width="580" height="480" as="geometry" />
        </mxCell>
        <mxCell id="hMHtxvA4B3zZOopVQEFz-16" value="" style="group" vertex="1" connectable="0" parent="1">
          <mxGeometry x="200" y="462.5" width="125" height="60" as="geometry" />
        </mxCell>
        <mxCell id="hMHtxvA4B3zZOopVQEFz-17" value="compromise data&lt;div&gt;integrity&lt;/div&gt;" style="rounded=0;whiteSpace=wrap;html=1;" vertex="1" parent="hMHtxvA4B3zZOopVQEFz-16">
          <mxGeometry y="13.333333333333334" width="108.0246913580247" height="46.66666666666667" as="geometry" />
        </mxCell>
        <mxCell id="hMHtxvA4B3zZOopVQEFz-18" value="" style="shape=image;verticalLabelPosition=bottom;verticalAlign=top;imageAspect=0;aspect=fixed;image=data:image/svg+xml,PHN2ZyB4bWxucz0iaHR0cDovL3d3dy53My5vcmcvMjAwMC9zdmciIHhtbG5zOnhsaW5rPSImYW1wO25zX3hsaW5rOyIgeG1sOnNwYWNlPSJwcmVzZXJ2ZSIgb3ZlcmZsb3c9InZpc2libGUiIHZpZXdCb3g9IjAgMCA0Mi4zMzY5OTQxNzExNDI1OCA0MS43OTEwMDAzNjYyMTA5NCIgaGVpZ2h0PSI0MS43OTEwMDAzNjYyMTA5NCIgd2lkdGg9IjQyLjMzNjk5NDE3MTE0MjU4IiBpZD0iTGF5ZXJfMSIgdmVyc2lvbj0iMS4xIj4mI3hhOzxnPiYjeGE7CTxwb2x5Z29uIHBvaW50cz0iMjAuOTY1LDMwLjUwOCAxMC4zMzIsNDEuNTA4IDE1LjY1NCwyOC4wNDUgMi4wNDMsMzIuMzI0ICYjMTA7JiM5OyYjOTsxNC4xODksMjIuOTEyIDAuMTM1LDE3Ljk0NSAxNC4zNCwxNy45NDggMTIuNTA2LDEyLjQ0OCAxNy4yMzgsMTYuMTA1IDEzLjgzMiwwLjIyNyAyMy4xNjQsMTQuMDA4IDI2LjgzMiw4LjUwOCAyNi40NjUsMTQuNzQyICYjMTA7JiM5OyYjOTs0MS44NjUsNy43NzUgMjkuMDMxLDE5LjUwOCA0Mi4yMywyMy4xNzUgMjguNjY0LDI0LjY0MiAzOC43NTYsNDAuODc4IDI0LjQ2MywzMC4yOCAyMi43OTksMzYuMDA4IiBmaWxsPSIjRkVFODUxIi8+JiN4YTsJPHBhdGggZD0iTTEzLjQzNiwwLjMxMmMwLDAsMi43NzEsMTIuOTE2LDMuMTc0LDE0Ljc5NmMtMS4xNjQtMC44OTktNC45MS0zLjc5NC00LjkxLTMuNzk0czEuNzg3LDUuMzU5LDIuMDc3LDYuMjI5JiMxMDsmIzk7JiM5O2MtMS4wMzcsMC0xMy42NDMtMC4wMDItMTMuNjQzLTAuMDAyTDAsMTguMzI3YzAsMCwxMi4wOTEsNC4yNzIsMTMuMzU0LDQuNzJjLTEuMDYyLDAuODIzLTExLjU2LDguOTU3LTExLjU2LDguOTU3bDAuMzcsMC43MDcmIzEwOyYjOTsmIzk7YzAsMCwxMS4zNjctMy41NzMsMTIuODAxLTQuMDI0Yy0wLjU1MywxLjQtNS4wMSwxMi42NzQtNS4wMSwxMi42NzRsMC42NjcsMC40M2MwLDAsOS4zMi05LjY0MiwxMC4xNjktMTAuNTImIzEwOyYjOTsmIzk7YzAuMzMxLDAuOTkyLDIuMDMzLDYuMDk5LDIuMDMzLDYuMDk5czEuNi01LjUwNiwxLjg2NC02LjQxN2MwLjg3NSwwLjY0OSwxMy44MjUsMTAuMjUyLDEzLjgyNSwxMC4yNTJsMC41ODUtMC41MzkmIzEwOyYjOTsmIzk7YzAsMC05LjExNi0xNC42NjctOS43NTItMTUuNjg5YzEuMTYzLTAuMTI1LDEyLjkyNy0xLjM5NywxMi45MjctMS4zOTdsMC4wNjQtMC43OTNjMCwwLTExLjIzMi0zLjEyLTEyLjQ5NS0zLjQ3MSYjMTA7JiM5OyYjOTtjMC45OTEtMC45MDYsMTIuMjk1LTExLjI0LDEyLjI5NS0xMS4yNGwtMC40NC0wLjY2OGMwLDAtMTMuNjYzLDYuMTgxLTE0Ljc5LDYuNjkxYzAuMDYzLTEuMDY2LDAuNDE2LTcuMDU2LDAuNDE2LTcuMDU2JiMxMDsmIzk7JiM5O3MtMy42MSw1LjQxNC00LjE2Myw2LjI0MkMyMi41MzQsMTIuMzU1LDE0LjE2NywwLDE0LjE2NywwTDEzLjQzNiwwLjMxMnogTTE3LjYzNCwxNi4wMmMwLDAtMi4zMDUtMTAuNzQ0LTIuOTY5LTEzLjg0JiMxMDsmIzk7JiM5O2MxLjc4OSwyLjY0MSw4LjUwMiwxMi41NTUsOC41MDIsMTIuNTU1czIuMTgtMy4yNjksMy4xNzMtNC43NThjLTAuMTAyLDEuNzI3LTAuMzE4LDUuNDExLTAuMzE4LDUuNDExczEwLjM0OS00LjY4MiwxMy42OTMtNi4xOTUmIzEwOyYjOTsmIzk7Yy0yLjczNiwyLjUwMS0xMS40OTYsMTAuNTEtMTEuNDk2LDEwLjUxUzM3LjE3MywyMi4xOTEsNDAuMDg2LDIzYy0zLjAwMiwwLjMyNS0xMi4xMDUsMS4zMS0xMi4xMDUsMS4zMXM3LjUzNywxMi4xMjYsOS4zMSwxNC45NzkmIzEwOyYjOTsmIzk7Yy0yLjY0Ny0xLjk2NC0xMy4wNTQtOS42OC0xMy4wNTQtOS42OHMtMS4wMjEsMy41MTQtMS40NjQsNS4wNGMtMC40OTUtMS40ODMtMS42MzUtNC45MDEtMS42MzUtNC45MDFzLTcuNTQ5LDcuODExLTkuNjc5LDEwLjAxNCYjMTA7JiM5OyYjOTtjMS4xMDctMi44MDEsNC44ODUtMTIuMzU1LDQuODg1LTEyLjM1NVM3LjEzMSwzMC4zLDQuMDc3LDMxLjI2YzIuNTk5LTIuMDE1LDEwLjk0Ny04LjQ4MywxMC45NDctOC40ODNTNS42NTMsMTkuNDY1LDIuNDk4LDE4LjM1JiMxMDsmIzk7JiM5O2MzLjI4NSwwLjAwMSwxMi40MDQsMC4wMDMsMTIuNDA0LDAuMDAzcy0xLjA5MS0zLjI3Mi0xLjU5MS00Ljc3MWMxLjI3MywwLjk4NCw0LjU1NSwzLjUyMSw0LjU1NSwzLjUyMUwxNy42MzQsMTYuMDJ6Ii8+JiN4YTs8L2c+JiN4YTs8L3N2Zz4=" vertex="1" parent="hMHtxvA4B3zZOopVQEFz-16">
          <mxGeometry x="92.59259259259261" width="28" height="28" as="geometry" />
        </mxCell>
        <mxCell id="hMHtxvA4B3zZOopVQEFz-19" value="web&#xa;infrastructure" style="shape=image;verticalLabelPosition=bottom;verticalAlign=top;imageAspect=0;aspect=fixed;image=data:image/svg+xml,PHN2ZyB4bWxucz0iaHR0cDovL3d3dy53My5vcmcvMjAwMC9zdmciIHhtbG5zOnhsaW5rPSImYW1wO25zX3hsaW5rOyIgeG1sOnNwYWNlPSJwcmVzZXJ2ZSIgb3ZlcmZsb3c9InZpc2libGUiIHZpZXdCb3g9IjAgMCAzNS41NDM5OTg3MTgyNjE3MiA0MS4wODgwMDEyNTEyMjA3IiBoZWlnaHQ9IjQxLjA4ODAwMTI1MTIyMDciIHdpZHRoPSIzNS41NDM5OTg3MTgyNjE3MiIgaWQ9IkxheWVyXzEiIHZlcnNpb249IjEuMSI+JiN4YTs8Zz4mI3hhOwk8Zz4mI3hhOwkJPHBhdGggZD0iTTE1Ljg3Nyw0LjA1NGMwLDAsMC43NDQtMy4zOTIsMS43MzgtMy42MDQmIzEwOyYjOTsmIzk7JiM5O2MwLjk5Mi0wLjIxMywxLjM0NiwzLjE4OSwxLjM0NiwzLjE4OXMxLjc3My0xLjg0MywyLjk3Ny0yLjE5N2MxLjIwNS0wLjM1NCwyLjE5OS0wLjA3LDEuMjc3LDAuOTkzJiMxMDsmIzk7JiM5OyYjOTtjLTAuOTIyLDEuMDYyLTIuMDE0LDQuNDYtMS45ODYsNi4wOTZjMC4wNzIsMy44OTgsMy43MzQsNS4xOSw1LjkzNCw2LjY0N2M2LjY0Myw0LjQwMiw3LjkyMiw4LjY0NCw3LjkyMiwxMy4zNjUmIzEwOyYjOTsmIzk7JiM5O2MwLDYuODgzLTYuNzIxLDEyLjA4Ni0xNy4yNTgsMTIuMDg2Yy0xMS43NjYsMC0xNy4zNjctNi4xNjItMTcuMzY3LTEyLjQ2M2MwLTUuNDU3LDIuOTgyLTkuNTI4LDcuMDk2LTExLjg2NyYjMTA7JiM5OyYjOTsmIzk7YzQuNDM2LTIuNTI1LDYuNjU4LTMuMzczLDguNS00Ljc5MWMxLjg0Mi0xLjQxNy0xLjkxNC01LjQ1OS0zLjQ3My02LjUyMWMtMS4yNDQtMC44NDktMS4yMDUtMC45OTMtMy4zMzItMS43NzImIzEwOyYjOTsmIzk7JiM5O2MwLDAsMS43NzctMS42MzIsMy42MTUtMS4wNjNjMi4xOTMsMC42NzgsNC4xMTEsMy4yNjEsNC4xMTEsMy4yNjEiIGZpbGw9IiNDMjkwNTQiLz4mI3hhOwkJPHBhdGggZD0iTTE1LjU5OSwzLjI4NWMtMC43MzEtMC42NDEtMS42MjctMS4yNzMtMi41OTctMS41NzNjLTIuMDY2LTAuNjM5LTMuOTgxLDEuMDktNC4wNjIsMS4xNjRsLTAuNTU2LDAuNTFsMC43MDgsMC4yNTkmIzEwOyYjOTsmIzk7JiM5O2MxLjY2NywwLjYxMSwxLjkzLDAuNzk5LDIuNjMyLDEuM2wwLjU5OSwwLjQyYzEuMjY5LDAuODY1LDMuNzI0LDMuNTA2LDMuNzY5LDUuMDUzYzAuMDA5LDAuMzIxLTAuMDkyLDAuNTUyLTAuMzE3LDAuNzI1JiMxMDsmIzk7JiM5OyYjOTtjLTEuMDYzLDAuODE5LTIuMjk5LDEuNDYzLTQuMDA5LDIuMzU1TDcuMzI4LDE1LjlDMi42NzEsMTguNTQ3LDAsMjMuMDE4LDAsMjguMTY2YzAsNi40MzIsNS41MTIsMTIuOTIyLDE3LjgyNywxMi45MjImIzEwOyYjOTsmIzk7JiM5O2MxMC40MzIsMCwxNy43MTctNS4xNTgsMTcuNzE3LTEyLjU0NWMwLTQuMzQzLTAuOTg0LTkuMDE0LTguMTI3LTEzLjc0OGwtMS4zMDctMC43OTJjLTIuMDQ3LTEuMTg4LTQuMzY3LTIuNTM1LTQuNDIyLTUuNDgxJiMxMDsmIzk7JiM5OyYjOTtjLTAuMDI1LTEuNTI5LDEuMDQzLTQuODI4LDEuODc0LTUuNzg2YzAuNjA1LTAuNjk4LDAuNTIyLTEuMTcsMC4zNDctMS40NDNjLTAuMzA3LTAuNDc5LTEuMDkyLTAuNTg3LTIuMS0wLjI5MiYjMTA7JiM5OyYjOTsmIzk7Yy0wLjg1NiwwLjI1Mi0xLjg2NiwxLjA5Mi0yLjUyMiwxLjY5NWMtMC4xNTctMC45MDUtMC40NjMtMi4xMS0xLjA0OC0yLjUzNUwxNy41MTksMEMxNi41NDYsMC4yMDgsMTUuOTIzLDIuMDM2LDE1LjU5OSwzLjI4NXomIzEwOyYjOTsmIzk7JiM5OyBNMTcuNzExLDAuODk4YzAuMjU4LDAuMTE4LDAuNjU2LDEuNDc0LDAuNzkzLDIuNzg4bDAuMTAzLDAuOTgybDAuNjg2LTAuNzExYzAuNDctMC40ODksMS44ODYtMS44MTMsMi43NzUtMi4wNzYmIzEwOyYjOTsmIzk7JiM5O2MwLjYxMi0wLjE4LDAuOTYyLTAuMTI0LDEuMDUzLTAuMDc3Yy0wLjAyOSwwLjAyMS0wLjA3NywwLjEyNi0wLjI1MiwwLjMyOWMtMC45NzksMS4xMjctMi4xLDQuNTI0LTIuMSw2LjMzNCYjMTA7JiM5OyYjOTsmIzk7YzAsMC4wMjQsMCwwLjA0NywwLjAwMSwwLjA3YzAuMDYzLDMuNDY1LDIuNzMzLDUuMDE1LDQuODc5LDYuMjZsMS4yNiwwLjc2M2M2LjQwNCw0LjI0NCw3LjcxNyw4LjI1OSw3LjcxNywxMi45ODImIzEwOyYjOTsmIzk7JiM5O2MwLDYuODQ2LTYuOTA4LDExLjYyNy0xNi43OTksMTEuNjI3Yy0xMS42OCwwLTE2LjkwOC02LjAyOS0xNi45MDgtMTIuMDA0YzAtNC44NzgsMi40MzgtOC45NTEsNi44NjMtMTEuNDY3bDQuNDA4LTIuMzg1JiMxMDsmIzk7JiM5OyYjOTtjMS43NTItMC45MTQsMy4wMTctMS41NzQsNC4xNDUtMi40NDJjMC40NDMtMC4zNDEsMC42NzYtMC44MjksMC42NzYtMS40MTVjMC0wLjAyMSwwLTAuMDQzLTAuMDAxLTAuMDY0JiMxMDsmIzk7JiM5OyYjOTtjLTAuMDYxLTIuMTA5LTMuMDA3LTQuOTkzLTQuMTY5LTUuNzg1bC0wLjU4My0wLjQwOWMtMC41OTgtMC40MjctMC45NzUtMC42NzctMi4wNS0xLjEwNmMwLjYxLTAuMzc2LDEuNTYyLTAuNzk5LDIuNTIxLTAuNTAyJiMxMDsmIzk7JiM5OyYjOTtjMi4wMjEsMC42MjUsMy44NiwzLjA3MSwzLjg3OCwzLjA5NmwwLjczNy0wLjU0OGMtMC4wMzQtMC4wNDYtMC40MDYtMC41MzItMC45ODItMS4xMjdDMTYuNzI4LDIuNDQsMTcuMzU0LDAuOTc1LDE3LjcxMSwwLjg5OHoiLz4mI3hhOwk8L2c+JiN4YTsJPGc+JiN4YTsJCTxwYXRoIGQ9Ik0yMi43MzcsNi41MWMtMC4wMzUtMC4zMTktMC4yMTMtMC43OTctMS43NTQtMC41NjcmIzEwOyYjOTsmIzk7JiM5O2MtMS44MzYsMC4yNzQtNS41NzIsMS4xNjQtNi4zOTgsMS41NzdjLTAuNzQ0LDAuMzczLTEuMDEsMC43OTktMC43MjcsMS4yMjNjMC4yODMsMC40MjYsMS40MTgsMC40OTcsMS40MTgsMC40OTcmIzEwOyYjOTsmIzk7JiM5O3MtMS4wNjIsMC41MzEtMC44NjksMS4wNDZjMC4yMjEsMC41ODEsMS4wMzUsMC41ODEsMi45OTYsMC4xNTlDMTguNTQ1LDEwLjE5OCwyMSw5LjY2NSwyMi4wODEsOS4zMSYjMTA7JiM5OyYjOTsmIzk7YzEuMDgyLTAuMzU0LDEuMjI3LTEuMDk3LDEuMTctMS4zNjRjLTAuMDk2LTAuNDYzLTEuMTctMC41MzItMS4xNy0wLjUzMlMyMi43NzIsNi44MjgsMjIuNzM3LDYuNTF6IiBmaWxsPSIjRkVFODRDIi8+JiN4YTsJCTxwYXRoIGQ9Ik0yMC45MTYsNS40ODhjLTEuNzI3LDAuMjU4LTUuNjA3LDEuMTU2LTYuNTM3LDEuNjIxYy0wLjYwNSwwLjMwNC0wLjk1MiwwLjY0Ny0xLjA1OSwxLjA1MWwwLjE1NiwwLjgzOCYjMTA7JiM5OyYjOTsmIzk7YzAuMTYsMC4yNCwwLjQ0OCwwLjM4NiwwLjc0NSwwLjQ5Yy0wLjE2NSwwLjE5My0wLjMsMC40MDktMC4zLDAuNjYyYzAsMC4wOTYsMC4wMTcsMC4xOTQsMC4wNTUsMC4yOTcmIzEwOyYjOTsmIzk7JiM5O2MwLjM5MiwxLjAzMiwxLjc2NywwLjgyNCwzLjUyMywwLjQ0N2MxLjUzOC0wLjMzMiwzLjcwMS0wLjgxMSw0LjcyNS0xLjE0N2MxLjEyNC0wLjM2OCwxLjQ5Ni0xLjE1OSwxLjQ5Ni0xLjY5MiYjMTA7JiM5OyYjOTsmIzk7YzAtMC4wNzMtMC4wMDctMC4xNDItMC4wMjEtMC4yMDRjLTAuMDc4LTAuMzc5LTAuNC0wLjU5Ni0wLjc0My0wLjcyNGMwLjEzMy0wLjE5NCwwLjI0MS0wLjM5NiwwLjI0MS0wLjU5NiYjMTA7JiM5OyYjOTsmIzk7YzAtMC4wMjQtMC4wMDItMC4wNDgtMC4wMDQtMC4wNzFsLTAuMzk4LTAuNzQ0QzIyLjQxOSw1LjQyNSwyMS44MjIsNS4zNTMsMjAuOTE2LDUuNDg4eiBNMTQuODM2LDEwLjEyMiYjMTA7JiM5OyYjOTsmIzk7YzAuMDM1LTAuMDY3LDAuMzUyLTAuMzI0LDAuNjQ2LTAuNDcybDEuNTA0LTAuNzU5bC0xLjY4MS0wLjExYy0wLjQ1LTAuMDI5LTAuOTc4LTAuMTc1LTEuMDY1LTAuMjkzJiMxMDsmIzk7JiM5OyYjOTtjLTAuMDI2LTAuMTEzLDAuMDM2LTAuMjk5LDAuNTUxLTAuNTU3YzAuNzE3LTAuMzU4LDQuMzQ1LTEuMjQ3LDYuMjYxLTEuNTM0YzAuODk2LTAuMTMzLDEuMTQ0LDAuMDE1LDEuMTg0LDAuMDQ2JiMxMDsmIzk7JiM5OyYjOTtjMCwwLDAuMDE3LDAuMDQyLDAuMDMsMC4wNzdjLTAuMDUsMC4xMTItMC4yNjgsMC4zNjEtMC40ODEsMC41NDJsLTAuODYxLDAuNzMybDEuMTI4LDAuMDc3YzAuMzEzLDAuMDIxLDAuNjk1LDAuMTI2LDAuNzcsMC4yMTImIzEwOyYjOTsmIzk7JiM5O2MtMC4wMDIsMC4wNjUtMC4wOTksMC41MzMtMC44ODIsMC43ODljLTEuMDk3LDAuMzYxLTMuNzU4LDAuOTM0LTQuNjMyLDEuMTIyQzE2LjczLDEwLjExOSwxNC45NzgsMTAuNDk2LDE0LjgzNiwxMC4xMjJ6JiMxMDsmIzk7JiM5OyYjOTsgTTIzLjE5NCw2LjQ1OWwtMC4wMS0wLjA4OEwyMy4xOTQsNi40NTl6IE0yMy4xOTQsNi40NTlMMjMuMTk0LDYuNDU5TDIzLjE5NCw2LjQ1OUwyMy4xOTQsNi40NTl6Ii8+JiN4YTsJPC9nPiYjeGE7CTxnPiYjeGE7CQk8cmVjdCBoZWlnaHQ9IjcuMjc3IiB3aWR0aD0iMC45MTkiIHRyYW5zZm9ybT0ibWF0cml4KC0wLjI0NTUgLTAuOTY5NCAwLjk2OTQgLTAuMjQ1NSAxNS4wNDMzIDI4LjM5NjUpIiB5PSI0LjcwNiIgeD0iMTguMTEzIi8+JiN4YTsJPC9nPiYjeGE7CTxnPiYjeGE7CQk8cGF0aCBkPSJNMTcuNjUxLDM2Ljk2di0yLjAyN2MtMS4wMS0wLjEyNy0xLjgyNi0wLjM1Mi0yLjQ1Ny0wLjY3NGMtMC42MzEtMC4zMjQtMS4xNzYtMC44NDYtMS42MzUtMS41NyYjMTA7JiM5OyYjOTsmIzk7Yy0wLjQ1Ny0wLjcyMS0wLjcyNS0xLjYwNC0wLjc5OS0yLjY0NWwyLjAyNy0wLjM4N2MwLjE1NiwxLjA4LDAuNDMyLDEuODc1LDAuODI4LDIuMzgxYzAuNTY2LDAuNzE3LDEuMjQ0LDEuMTEzLDIuMDM1LDEuMTk1JiMxMDsmIzk7JiM5OyYjOTt2LTYuMzIyYy0wLjgyMi0wLjIxNS0xLjY2OC0wLjU2NC0yLjUzMS0xLjA0OWMtMC42NDEtMC4zNTctMS4xMzctMC44NTItMS40OC0xLjQ4NGMtMC4zNDgtMC42MzUtMC41MjEtMS4zNTUtMC41MjEtMi4xNjImIzEwOyYjOTsmIzk7JiM5O2MwLTEuNDMsMC41MDYtMi41OSwxLjUyLTMuNDc4YzAuNjc2LTAuNTk3LDEuNjgtMC45NjIsMy4wMTQtMS4wOTd2LTAuOTUzaDEuMTkxdjAuOTUzYzEuMTY0LDAuMTE0LDIuMDg4LDAuNDU4LDIuNzczLDEuMDM0JiMxMDsmIzk7JiM5OyYjOTtjMC44NzMsMC43MzQsMS40LDEuNzQxLDEuNTc4LDMuMDIxbC0yLjA1NywwLjMyOGMtMC4xMTktMC43OTktMC4zNjUtMS40MTItMC43NDQtMS44MzhjLTAuMzc3LTAuNDI4LTAuODk1LTAuNzA4LTEuNTUxLTAuODQ1JiMxMDsmIzk7JiM5OyYjOTt2NS43ODljMS4wMTQsMC4yNjYsMS42ODQsMC40NjksMi4wMSwwLjYxMWMwLjYyNywwLjI3NSwxLjEzNywwLjYxMSwxLjUzMSwxLjAwNnMwLjY5OSwwLjg2MywwLjkxLDEuNDA2JiMxMDsmIzk7JiM5OyYjOTtjMC4yMTMsMC41NDUsMC4zMTgsMS4xMzMsMC4zMTgsMS43NjZjMCwxLjM5NS0wLjQ0MywyLjU1Ny0xLjMyOCwzLjQ4NmMtMC44ODcsMC45MzItMi4wMzUsMS40MzItMy40NDEsMS40OTh2Mi4wNTdIMTcuNjUxeiYjMTA7JiM5OyYjOTsmIzk7IE0xNy42NTEsMTkuMzEyYy0wLjc3NywwLjExOS0xLjM4OSwwLjQzMy0xLjgzNCwwLjkzOGMtMC40NDcsMC41MDgtMC42NzIsMS4xMDktMC42NzIsMS44MDJjMCwwLjY4NiwwLjE5MSwxLjI2LDAuNTcsMS43MjMmIzEwOyYjOTsmIzk7JiM5O2MwLjM3OSwwLjQ2MSwxLjAyMywwLjgwOSwxLjkzNiwxLjA0NVYxOS4zMTJ6IE0xOC44NDIsMzMuMjM0YzAuNzgzLTAuMDk4LDEuNDMyLTAuNDM0LDEuOTQ1LTEuMDE2JiMxMDsmIzk7JiM5OyYjOTtjMC41MTItMC41OCwwLjc2OC0xLjI5NywwLjc2OC0yLjE1MmMwLTAuNzMtMC4xODItMS4zMTQtMC41NDktMS43NThjLTAuMzY1LTAuNDQxLTEuMDg2LTAuODAzLTIuMTY0LTEuMDg0VjMzLjIzNHoiLz4mI3hhOwk8L2c+JiN4YTs8L2c+JiN4YTs8L3N2Zz4=" vertex="1" parent="1">
          <mxGeometry x="460" y="250" width="36" height="41" as="geometry" />
        </mxCell>
        <mxCell id="hMHtxvA4B3zZOopVQEFz-20" value="students &amp;&#xa;staff" style="shape=image;verticalLabelPosition=bottom;verticalAlign=top;imageAspect=0;aspect=fixed;image=data:image/svg+xml,PHN2ZyB4bWxucz0iaHR0cDovL3d3dy53My5vcmcvMjAwMC9zdmciIHhtbG5zOnhsaW5rPSImYW1wO25zX3hsaW5rOyIgeG1sOnNwYWNlPSJwcmVzZXJ2ZSIgb3ZlcmZsb3c9InZpc2libGUiIHZpZXdCb3g9IjAgMCAzNS41NDM5OTg3MTgyNjE3MiA0MS4wODgwMDEyNTEyMjA3IiBoZWlnaHQ9IjQxLjA4ODAwMTI1MTIyMDciIHdpZHRoPSIzNS41NDM5OTg3MTgyNjE3MiIgaWQ9IkxheWVyXzEiIHZlcnNpb249IjEuMSI+JiN4YTs8Zz4mI3hhOwk8Zz4mI3hhOwkJPHBhdGggZD0iTTE1Ljg3Nyw0LjA1NGMwLDAsMC43NDQtMy4zOTIsMS43MzgtMy42MDQmIzEwOyYjOTsmIzk7JiM5O2MwLjk5Mi0wLjIxMywxLjM0NiwzLjE4OSwxLjM0NiwzLjE4OXMxLjc3My0xLjg0MywyLjk3Ny0yLjE5N2MxLjIwNS0wLjM1NCwyLjE5OS0wLjA3LDEuMjc3LDAuOTkzJiMxMDsmIzk7JiM5OyYjOTtjLTAuOTIyLDEuMDYyLTIuMDE0LDQuNDYtMS45ODYsNi4wOTZjMC4wNzIsMy44OTgsMy43MzQsNS4xOSw1LjkzNCw2LjY0N2M2LjY0Myw0LjQwMiw3LjkyMiw4LjY0NCw3LjkyMiwxMy4zNjUmIzEwOyYjOTsmIzk7JiM5O2MwLDYuODgzLTYuNzIxLDEyLjA4Ni0xNy4yNTgsMTIuMDg2Yy0xMS43NjYsMC0xNy4zNjctNi4xNjItMTcuMzY3LTEyLjQ2M2MwLTUuNDU3LDIuOTgyLTkuNTI4LDcuMDk2LTExLjg2NyYjMTA7JiM5OyYjOTsmIzk7YzQuNDM2LTIuNTI1LDYuNjU4LTMuMzczLDguNS00Ljc5MWMxLjg0Mi0xLjQxNy0xLjkxNC01LjQ1OS0zLjQ3My02LjUyMWMtMS4yNDQtMC44NDktMS4yMDUtMC45OTMtMy4zMzItMS43NzImIzEwOyYjOTsmIzk7JiM5O2MwLDAsMS43NzctMS42MzIsMy42MTUtMS4wNjNjMi4xOTMsMC42NzgsNC4xMTEsMy4yNjEsNC4xMTEsMy4yNjEiIGZpbGw9IiNDMjkwNTQiLz4mI3hhOwkJPHBhdGggZD0iTTE1LjU5OSwzLjI4NWMtMC43MzEtMC42NDEtMS42MjctMS4yNzMtMi41OTctMS41NzNjLTIuMDY2LTAuNjM5LTMuOTgxLDEuMDktNC4wNjIsMS4xNjRsLTAuNTU2LDAuNTFsMC43MDgsMC4yNTkmIzEwOyYjOTsmIzk7JiM5O2MxLjY2NywwLjYxMSwxLjkzLDAuNzk5LDIuNjMyLDEuM2wwLjU5OSwwLjQyYzEuMjY5LDAuODY1LDMuNzI0LDMuNTA2LDMuNzY5LDUuMDUzYzAuMDA5LDAuMzIxLTAuMDkyLDAuNTUyLTAuMzE3LDAuNzI1JiMxMDsmIzk7JiM5OyYjOTtjLTEuMDYzLDAuODE5LTIuMjk5LDEuNDYzLTQuMDA5LDIuMzU1TDcuMzI4LDE1LjlDMi42NzEsMTguNTQ3LDAsMjMuMDE4LDAsMjguMTY2YzAsNi40MzIsNS41MTIsMTIuOTIyLDE3LjgyNywxMi45MjImIzEwOyYjOTsmIzk7JiM5O2MxMC40MzIsMCwxNy43MTctNS4xNTgsMTcuNzE3LTEyLjU0NWMwLTQuMzQzLTAuOTg0LTkuMDE0LTguMTI3LTEzLjc0OGwtMS4zMDctMC43OTJjLTIuMDQ3LTEuMTg4LTQuMzY3LTIuNTM1LTQuNDIyLTUuNDgxJiMxMDsmIzk7JiM5OyYjOTtjLTAuMDI1LTEuNTI5LDEuMDQzLTQuODI4LDEuODc0LTUuNzg2YzAuNjA1LTAuNjk4LDAuNTIyLTEuMTcsMC4zNDctMS40NDNjLTAuMzA3LTAuNDc5LTEuMDkyLTAuNTg3LTIuMS0wLjI5MiYjMTA7JiM5OyYjOTsmIzk7Yy0wLjg1NiwwLjI1Mi0xLjg2NiwxLjA5Mi0yLjUyMiwxLjY5NWMtMC4xNTctMC45MDUtMC40NjMtMi4xMS0xLjA0OC0yLjUzNUwxNy41MTksMEMxNi41NDYsMC4yMDgsMTUuOTIzLDIuMDM2LDE1LjU5OSwzLjI4NXomIzEwOyYjOTsmIzk7JiM5OyBNMTcuNzExLDAuODk4YzAuMjU4LDAuMTE4LDAuNjU2LDEuNDc0LDAuNzkzLDIuNzg4bDAuMTAzLDAuOTgybDAuNjg2LTAuNzExYzAuNDctMC40ODksMS44ODYtMS44MTMsMi43NzUtMi4wNzYmIzEwOyYjOTsmIzk7JiM5O2MwLjYxMi0wLjE4LDAuOTYyLTAuMTI0LDEuMDUzLTAuMDc3Yy0wLjAyOSwwLjAyMS0wLjA3NywwLjEyNi0wLjI1MiwwLjMyOWMtMC45NzksMS4xMjctMi4xLDQuNTI0LTIuMSw2LjMzNCYjMTA7JiM5OyYjOTsmIzk7YzAsMC4wMjQsMCwwLjA0NywwLjAwMSwwLjA3YzAuMDYzLDMuNDY1LDIuNzMzLDUuMDE1LDQuODc5LDYuMjZsMS4yNiwwLjc2M2M2LjQwNCw0LjI0NCw3LjcxNyw4LjI1OSw3LjcxNywxMi45ODImIzEwOyYjOTsmIzk7JiM5O2MwLDYuODQ2LTYuOTA4LDExLjYyNy0xNi43OTksMTEuNjI3Yy0xMS42OCwwLTE2LjkwOC02LjAyOS0xNi45MDgtMTIuMDA0YzAtNC44NzgsMi40MzgtOC45NTEsNi44NjMtMTEuNDY3bDQuNDA4LTIuMzg1JiMxMDsmIzk7JiM5OyYjOTtjMS43NTItMC45MTQsMy4wMTctMS41NzQsNC4xNDUtMi40NDJjMC40NDMtMC4zNDEsMC42NzYtMC44MjksMC42NzYtMS40MTVjMC0wLjAyMSwwLTAuMDQzLTAuMDAxLTAuMDY0JiMxMDsmIzk7JiM5OyYjOTtjLTAuMDYxLTIuMTA5LTMuMDA3LTQuOTkzLTQuMTY5LTUuNzg1bC0wLjU4My0wLjQwOWMtMC41OTgtMC40MjctMC45NzUtMC42NzctMi4wNS0xLjEwNmMwLjYxLTAuMzc2LDEuNTYyLTAuNzk5LDIuNTIxLTAuNTAyJiMxMDsmIzk7JiM5OyYjOTtjMi4wMjEsMC42MjUsMy44NiwzLjA3MSwzLjg3OCwzLjA5NmwwLjczNy0wLjU0OGMtMC4wMzQtMC4wNDYtMC40MDYtMC41MzItMC45ODItMS4xMjdDMTYuNzI4LDIuNDQsMTcuMzU0LDAuOTc1LDE3LjcxMSwwLjg5OHoiLz4mI3hhOwk8L2c+JiN4YTsJPGc+JiN4YTsJCTxwYXRoIGQ9Ik0yMi43MzcsNi41MWMtMC4wMzUtMC4zMTktMC4yMTMtMC43OTctMS43NTQtMC41NjcmIzEwOyYjOTsmIzk7JiM5O2MtMS44MzYsMC4yNzQtNS41NzIsMS4xNjQtNi4zOTgsMS41NzdjLTAuNzQ0LDAuMzczLTEuMDEsMC43OTktMC43MjcsMS4yMjNjMC4yODMsMC40MjYsMS40MTgsMC40OTcsMS40MTgsMC40OTcmIzEwOyYjOTsmIzk7JiM5O3MtMS4wNjIsMC41MzEtMC44NjksMS4wNDZjMC4yMjEsMC41ODEsMS4wMzUsMC41ODEsMi45OTYsMC4xNTlDMTguNTQ1LDEwLjE5OCwyMSw5LjY2NSwyMi4wODEsOS4zMSYjMTA7JiM5OyYjOTsmIzk7YzEuMDgyLTAuMzU0LDEuMjI3LTEuMDk3LDEuMTctMS4zNjRjLTAuMDk2LTAuNDYzLTEuMTctMC41MzItMS4xNy0wLjUzMlMyMi43NzIsNi44MjgsMjIuNzM3LDYuNTF6IiBmaWxsPSIjRkVFODRDIi8+JiN4YTsJCTxwYXRoIGQ9Ik0yMC45MTYsNS40ODhjLTEuNzI3LDAuMjU4LTUuNjA3LDEuMTU2LTYuNTM3LDEuNjIxYy0wLjYwNSwwLjMwNC0wLjk1MiwwLjY0Ny0xLjA1OSwxLjA1MWwwLjE1NiwwLjgzOCYjMTA7JiM5OyYjOTsmIzk7YzAuMTYsMC4yNCwwLjQ0OCwwLjM4NiwwLjc0NSwwLjQ5Yy0wLjE2NSwwLjE5My0wLjMsMC40MDktMC4zLDAuNjYyYzAsMC4wOTYsMC4wMTcsMC4xOTQsMC4wNTUsMC4yOTcmIzEwOyYjOTsmIzk7JiM5O2MwLjM5MiwxLjAzMiwxLjc2NywwLjgyNCwzLjUyMywwLjQ0N2MxLjUzOC0wLjMzMiwzLjcwMS0wLjgxMSw0LjcyNS0xLjE0N2MxLjEyNC0wLjM2OCwxLjQ5Ni0xLjE1OSwxLjQ5Ni0xLjY5MiYjMTA7JiM5OyYjOTsmIzk7YzAtMC4wNzMtMC4wMDctMC4xNDItMC4wMjEtMC4yMDRjLTAuMDc4LTAuMzc5LTAuNC0wLjU5Ni0wLjc0My0wLjcyNGMwLjEzMy0wLjE5NCwwLjI0MS0wLjM5NiwwLjI0MS0wLjU5NiYjMTA7JiM5OyYjOTsmIzk7YzAtMC4wMjQtMC4wMDItMC4wNDgtMC4wMDQtMC4wNzFsLTAuMzk4LTAuNzQ0QzIyLjQxOSw1LjQyNSwyMS44MjIsNS4zNTMsMjAuOTE2LDUuNDg4eiBNMTQuODM2LDEwLjEyMiYjMTA7JiM5OyYjOTsmIzk7YzAuMDM1LTAuMDY3LDAuMzUyLTAuMzI0LDAuNjQ2LTAuNDcybDEuNTA0LTAuNzU5bC0xLjY4MS0wLjExYy0wLjQ1LTAuMDI5LTAuOTc4LTAuMTc1LTEuMDY1LTAuMjkzJiMxMDsmIzk7JiM5OyYjOTtjLTAuMDI2LTAuMTEzLDAuMDM2LTAuMjk5LDAuNTUxLTAuNTU3YzAuNzE3LTAuMzU4LDQuMzQ1LTEuMjQ3LDYuMjYxLTEuNTM0YzAuODk2LTAuMTMzLDEuMTQ0LDAuMDE1LDEuMTg0LDAuMDQ2JiMxMDsmIzk7JiM5OyYjOTtjMCwwLDAuMDE3LDAuMDQyLDAuMDMsMC4wNzdjLTAuMDUsMC4xMTItMC4yNjgsMC4zNjEtMC40ODEsMC41NDJsLTAuODYxLDAuNzMybDEuMTI4LDAuMDc3YzAuMzEzLDAuMDIxLDAuNjk1LDAuMTI2LDAuNzcsMC4yMTImIzEwOyYjOTsmIzk7JiM5O2MtMC4wMDIsMC4wNjUtMC4wOTksMC41MzMtMC44ODIsMC43ODljLTEuMDk3LDAuMzYxLTMuNzU4LDAuOTM0LTQuNjMyLDEuMTIyQzE2LjczLDEwLjExOSwxNC45NzgsMTAuNDk2LDE0LjgzNiwxMC4xMjJ6JiMxMDsmIzk7JiM5OyYjOTsgTTIzLjE5NCw2LjQ1OWwtMC4wMS0wLjA4OEwyMy4xOTQsNi40NTl6IE0yMy4xOTQsNi40NTlMMjMuMTk0LDYuNDU5TDIzLjE5NCw2LjQ1OUwyMy4xOTQsNi40NTl6Ii8+JiN4YTsJPC9nPiYjeGE7CTxnPiYjeGE7CQk8cmVjdCBoZWlnaHQ9IjcuMjc3IiB3aWR0aD0iMC45MTkiIHRyYW5zZm9ybT0ibWF0cml4KC0wLjI0NTUgLTAuOTY5NCAwLjk2OTQgLTAuMjQ1NSAxNS4wNDMzIDI4LjM5NjUpIiB5PSI0LjcwNiIgeD0iMTguMTEzIi8+JiN4YTsJPC9nPiYjeGE7CTxnPiYjeGE7CQk8cGF0aCBkPSJNMTcuNjUxLDM2Ljk2di0yLjAyN2MtMS4wMS0wLjEyNy0xLjgyNi0wLjM1Mi0yLjQ1Ny0wLjY3NGMtMC42MzEtMC4zMjQtMS4xNzYtMC44NDYtMS42MzUtMS41NyYjMTA7JiM5OyYjOTsmIzk7Yy0wLjQ1Ny0wLjcyMS0wLjcyNS0xLjYwNC0wLjc5OS0yLjY0NWwyLjAyNy0wLjM4N2MwLjE1NiwxLjA4LDAuNDMyLDEuODc1LDAuODI4LDIuMzgxYzAuNTY2LDAuNzE3LDEuMjQ0LDEuMTEzLDIuMDM1LDEuMTk1JiMxMDsmIzk7JiM5OyYjOTt2LTYuMzIyYy0wLjgyMi0wLjIxNS0xLjY2OC0wLjU2NC0yLjUzMS0xLjA0OWMtMC42NDEtMC4zNTctMS4xMzctMC44NTItMS40OC0xLjQ4NGMtMC4zNDgtMC42MzUtMC41MjEtMS4zNTUtMC41MjEtMi4xNjImIzEwOyYjOTsmIzk7JiM5O2MwLTEuNDMsMC41MDYtMi41OSwxLjUyLTMuNDc4YzAuNjc2LTAuNTk3LDEuNjgtMC45NjIsMy4wMTQtMS4wOTd2LTAuOTUzaDEuMTkxdjAuOTUzYzEuMTY0LDAuMTE0LDIuMDg4LDAuNDU4LDIuNzczLDEuMDM0JiMxMDsmIzk7JiM5OyYjOTtjMC44NzMsMC43MzQsMS40LDEuNzQxLDEuNTc4LDMuMDIxbC0yLjA1NywwLjMyOGMtMC4xMTktMC43OTktMC4zNjUtMS40MTItMC43NDQtMS44MzhjLTAuMzc3LTAuNDI4LTAuODk1LTAuNzA4LTEuNTUxLTAuODQ1JiMxMDsmIzk7JiM5OyYjOTt2NS43ODljMS4wMTQsMC4yNjYsMS42ODQsMC40NjksMi4wMSwwLjYxMWMwLjYyNywwLjI3NSwxLjEzNywwLjYxMSwxLjUzMSwxLjAwNnMwLjY5OSwwLjg2MywwLjkxLDEuNDA2JiMxMDsmIzk7JiM5OyYjOTtjMC4yMTMsMC41NDUsMC4zMTgsMS4xMzMsMC4zMTgsMS43NjZjMCwxLjM5NS0wLjQ0MywyLjU1Ny0xLjMyOCwzLjQ4NmMtMC44ODcsMC45MzItMi4wMzUsMS40MzItMy40NDEsMS40OTh2Mi4wNTdIMTcuNjUxeiYjMTA7JiM5OyYjOTsmIzk7IE0xNy42NTEsMTkuMzEyYy0wLjc3NywwLjExOS0xLjM4OSwwLjQzMy0xLjgzNCwwLjkzOGMtMC40NDcsMC41MDgtMC42NzIsMS4xMDktMC42NzIsMS44MDJjMCwwLjY4NiwwLjE5MSwxLjI2LDAuNTcsMS43MjMmIzEwOyYjOTsmIzk7JiM5O2MwLjM3OSwwLjQ2MSwxLjAyMywwLjgwOSwxLjkzNiwxLjA0NVYxOS4zMTJ6IE0xOC44NDIsMzMuMjM0YzAuNzgzLTAuMDk4LDEuNDMyLTAuNDM0LDEuOTQ1LTEuMDE2JiMxMDsmIzk7JiM5OyYjOTtjMC41MTItMC41OCwwLjc2OC0xLjI5NywwLjc2OC0yLjE1MmMwLTAuNzMtMC4xODItMS4zMTQtMC41NDktMS43NThjLTAuMzY1LTAuNDQxLTEuMDg2LTAuODAzLTIuMTY0LTEuMDg0VjMzLjIzNHoiLz4mI3hhOwk8L2c+JiN4YTs8L2c+JiN4YTs8L3N2Zz4=" vertex="1" parent="1">
          <mxGeometry x="460" y="450" width="36" height="41" as="geometry" />
        </mxCell>
        <mxCell id="hMHtxvA4B3zZOopVQEFz-21" value="user &amp;admin&#xa;accounts" style="shape=image;verticalLabelPosition=bottom;verticalAlign=top;imageAspect=0;aspect=fixed;image=data:image/svg+xml,PHN2ZyB4bWxucz0iaHR0cDovL3d3dy53My5vcmcvMjAwMC9zdmciIHhtbG5zOnhsaW5rPSImYW1wO25zX3hsaW5rOyIgeG1sOnNwYWNlPSJwcmVzZXJ2ZSIgb3ZlcmZsb3c9InZpc2libGUiIHZpZXdCb3g9IjAgMCAzNS41NDM5OTg3MTgyNjE3MiA0MS4wODgwMDEyNTEyMjA3IiBoZWlnaHQ9IjQxLjA4ODAwMTI1MTIyMDciIHdpZHRoPSIzNS41NDM5OTg3MTgyNjE3MiIgaWQ9IkxheWVyXzEiIHZlcnNpb249IjEuMSI+JiN4YTs8Zz4mI3hhOwk8Zz4mI3hhOwkJPHBhdGggZD0iTTE1Ljg3Nyw0LjA1NGMwLDAsMC43NDQtMy4zOTIsMS43MzgtMy42MDQmIzEwOyYjOTsmIzk7JiM5O2MwLjk5Mi0wLjIxMywxLjM0NiwzLjE4OSwxLjM0NiwzLjE4OXMxLjc3My0xLjg0MywyLjk3Ny0yLjE5N2MxLjIwNS0wLjM1NCwyLjE5OS0wLjA3LDEuMjc3LDAuOTkzJiMxMDsmIzk7JiM5OyYjOTtjLTAuOTIyLDEuMDYyLTIuMDE0LDQuNDYtMS45ODYsNi4wOTZjMC4wNzIsMy44OTgsMy43MzQsNS4xOSw1LjkzNCw2LjY0N2M2LjY0Myw0LjQwMiw3LjkyMiw4LjY0NCw3LjkyMiwxMy4zNjUmIzEwOyYjOTsmIzk7JiM5O2MwLDYuODgzLTYuNzIxLDEyLjA4Ni0xNy4yNTgsMTIuMDg2Yy0xMS43NjYsMC0xNy4zNjctNi4xNjItMTcuMzY3LTEyLjQ2M2MwLTUuNDU3LDIuOTgyLTkuNTI4LDcuMDk2LTExLjg2NyYjMTA7JiM5OyYjOTsmIzk7YzQuNDM2LTIuNTI1LDYuNjU4LTMuMzczLDguNS00Ljc5MWMxLjg0Mi0xLjQxNy0xLjkxNC01LjQ1OS0zLjQ3My02LjUyMWMtMS4yNDQtMC44NDktMS4yMDUtMC45OTMtMy4zMzItMS43NzImIzEwOyYjOTsmIzk7JiM5O2MwLDAsMS43NzctMS42MzIsMy42MTUtMS4wNjNjMi4xOTMsMC42NzgsNC4xMTEsMy4yNjEsNC4xMTEsMy4yNjEiIGZpbGw9IiNDMjkwNTQiLz4mI3hhOwkJPHBhdGggZD0iTTE1LjU5OSwzLjI4NWMtMC43MzEtMC42NDEtMS42MjctMS4yNzMtMi41OTctMS41NzNjLTIuMDY2LTAuNjM5LTMuOTgxLDEuMDktNC4wNjIsMS4xNjRsLTAuNTU2LDAuNTFsMC43MDgsMC4yNTkmIzEwOyYjOTsmIzk7JiM5O2MxLjY2NywwLjYxMSwxLjkzLDAuNzk5LDIuNjMyLDEuM2wwLjU5OSwwLjQyYzEuMjY5LDAuODY1LDMuNzI0LDMuNTA2LDMuNzY5LDUuMDUzYzAuMDA5LDAuMzIxLTAuMDkyLDAuNTUyLTAuMzE3LDAuNzI1JiMxMDsmIzk7JiM5OyYjOTtjLTEuMDYzLDAuODE5LTIuMjk5LDEuNDYzLTQuMDA5LDIuMzU1TDcuMzI4LDE1LjlDMi42NzEsMTguNTQ3LDAsMjMuMDE4LDAsMjguMTY2YzAsNi40MzIsNS41MTIsMTIuOTIyLDE3LjgyNywxMi45MjImIzEwOyYjOTsmIzk7JiM5O2MxMC40MzIsMCwxNy43MTctNS4xNTgsMTcuNzE3LTEyLjU0NWMwLTQuMzQzLTAuOTg0LTkuMDE0LTguMTI3LTEzLjc0OGwtMS4zMDctMC43OTJjLTIuMDQ3LTEuMTg4LTQuMzY3LTIuNTM1LTQuNDIyLTUuNDgxJiMxMDsmIzk7JiM5OyYjOTtjLTAuMDI1LTEuNTI5LDEuMDQzLTQuODI4LDEuODc0LTUuNzg2YzAuNjA1LTAuNjk4LDAuNTIyLTEuMTcsMC4zNDctMS40NDNjLTAuMzA3LTAuNDc5LTEuMDkyLTAuNTg3LTIuMS0wLjI5MiYjMTA7JiM5OyYjOTsmIzk7Yy0wLjg1NiwwLjI1Mi0xLjg2NiwxLjA5Mi0yLjUyMiwxLjY5NWMtMC4xNTctMC45MDUtMC40NjMtMi4xMS0xLjA0OC0yLjUzNUwxNy41MTksMEMxNi41NDYsMC4yMDgsMTUuOTIzLDIuMDM2LDE1LjU5OSwzLjI4NXomIzEwOyYjOTsmIzk7JiM5OyBNMTcuNzExLDAuODk4YzAuMjU4LDAuMTE4LDAuNjU2LDEuNDc0LDAuNzkzLDIuNzg4bDAuMTAzLDAuOTgybDAuNjg2LTAuNzExYzAuNDctMC40ODksMS44ODYtMS44MTMsMi43NzUtMi4wNzYmIzEwOyYjOTsmIzk7JiM5O2MwLjYxMi0wLjE4LDAuOTYyLTAuMTI0LDEuMDUzLTAuMDc3Yy0wLjAyOSwwLjAyMS0wLjA3NywwLjEyNi0wLjI1MiwwLjMyOWMtMC45NzksMS4xMjctMi4xLDQuNTI0LTIuMSw2LjMzNCYjMTA7JiM5OyYjOTsmIzk7YzAsMC4wMjQsMCwwLjA0NywwLjAwMSwwLjA3YzAuMDYzLDMuNDY1LDIuNzMzLDUuMDE1LDQuODc5LDYuMjZsMS4yNiwwLjc2M2M2LjQwNCw0LjI0NCw3LjcxNyw4LjI1OSw3LjcxNywxMi45ODImIzEwOyYjOTsmIzk7JiM5O2MwLDYuODQ2LTYuOTA4LDExLjYyNy0xNi43OTksMTEuNjI3Yy0xMS42OCwwLTE2LjkwOC02LjAyOS0xNi45MDgtMTIuMDA0YzAtNC44NzgsMi40MzgtOC45NTEsNi44NjMtMTEuNDY3bDQuNDA4LTIuMzg1JiMxMDsmIzk7JiM5OyYjOTtjMS43NTItMC45MTQsMy4wMTctMS41NzQsNC4xNDUtMi40NDJjMC40NDMtMC4zNDEsMC42NzYtMC44MjksMC42NzYtMS40MTVjMC0wLjAyMSwwLTAuMDQzLTAuMDAxLTAuMDY0JiMxMDsmIzk7JiM5OyYjOTtjLTAuMDYxLTIuMTA5LTMuMDA3LTQuOTkzLTQuMTY5LTUuNzg1bC0wLjU4My0wLjQwOWMtMC41OTgtMC40MjctMC45NzUtMC42NzctMi4wNS0xLjEwNmMwLjYxLTAuMzc2LDEuNTYyLTAuNzk5LDIuNTIxLTAuNTAyJiMxMDsmIzk7JiM5OyYjOTtjMi4wMjEsMC42MjUsMy44NiwzLjA3MSwzLjg3OCwzLjA5NmwwLjczNy0wLjU0OGMtMC4wMzQtMC4wNDYtMC40MDYtMC41MzItMC45ODItMS4xMjdDMTYuNzI4LDIuNDQsMTcuMzU0LDAuOTc1LDE3LjcxMSwwLjg5OHoiLz4mI3hhOwk8L2c+JiN4YTsJPGc+JiN4YTsJCTxwYXRoIGQ9Ik0yMi43MzcsNi41MWMtMC4wMzUtMC4zMTktMC4yMTMtMC43OTctMS43NTQtMC41NjcmIzEwOyYjOTsmIzk7JiM5O2MtMS44MzYsMC4yNzQtNS41NzIsMS4xNjQtNi4zOTgsMS41NzdjLTAuNzQ0LDAuMzczLTEuMDEsMC43OTktMC43MjcsMS4yMjNjMC4yODMsMC40MjYsMS40MTgsMC40OTcsMS40MTgsMC40OTcmIzEwOyYjOTsmIzk7JiM5O3MtMS4wNjIsMC41MzEtMC44NjksMS4wNDZjMC4yMjEsMC41ODEsMS4wMzUsMC41ODEsMi45OTYsMC4xNTlDMTguNTQ1LDEwLjE5OCwyMSw5LjY2NSwyMi4wODEsOS4zMSYjMTA7JiM5OyYjOTsmIzk7YzEuMDgyLTAuMzU0LDEuMjI3LTEuMDk3LDEuMTctMS4zNjRjLTAuMDk2LTAuNDYzLTEuMTctMC41MzItMS4xNy0wLjUzMlMyMi43NzIsNi44MjgsMjIuNzM3LDYuNTF6IiBmaWxsPSIjRkVFODRDIi8+JiN4YTsJCTxwYXRoIGQ9Ik0yMC45MTYsNS40ODhjLTEuNzI3LDAuMjU4LTUuNjA3LDEuMTU2LTYuNTM3LDEuNjIxYy0wLjYwNSwwLjMwNC0wLjk1MiwwLjY0Ny0xLjA1OSwxLjA1MWwwLjE1NiwwLjgzOCYjMTA7JiM5OyYjOTsmIzk7YzAuMTYsMC4yNCwwLjQ0OCwwLjM4NiwwLjc0NSwwLjQ5Yy0wLjE2NSwwLjE5My0wLjMsMC40MDktMC4zLDAuNjYyYzAsMC4wOTYsMC4wMTcsMC4xOTQsMC4wNTUsMC4yOTcmIzEwOyYjOTsmIzk7JiM5O2MwLjM5MiwxLjAzMiwxLjc2NywwLjgyNCwzLjUyMywwLjQ0N2MxLjUzOC0wLjMzMiwzLjcwMS0wLjgxMSw0LjcyNS0xLjE0N2MxLjEyNC0wLjM2OCwxLjQ5Ni0xLjE1OSwxLjQ5Ni0xLjY5MiYjMTA7JiM5OyYjOTsmIzk7YzAtMC4wNzMtMC4wMDctMC4xNDItMC4wMjEtMC4yMDRjLTAuMDc4LTAuMzc5LTAuNC0wLjU5Ni0wLjc0My0wLjcyNGMwLjEzMy0wLjE5NCwwLjI0MS0wLjM5NiwwLjI0MS0wLjU5NiYjMTA7JiM5OyYjOTsmIzk7YzAtMC4wMjQtMC4wMDItMC4wNDgtMC4wMDQtMC4wNzFsLTAuMzk4LTAuNzQ0QzIyLjQxOSw1LjQyNSwyMS44MjIsNS4zNTMsMjAuOTE2LDUuNDg4eiBNMTQuODM2LDEwLjEyMiYjMTA7JiM5OyYjOTsmIzk7YzAuMDM1LTAuMDY3LDAuMzUyLTAuMzI0LDAuNjQ2LTAuNDcybDEuNTA0LTAuNzU5bC0xLjY4MS0wLjExYy0wLjQ1LTAuMDI5LTAuOTc4LTAuMTc1LTEuMDY1LTAuMjkzJiMxMDsmIzk7JiM5OyYjOTtjLTAuMDI2LTAuMTEzLDAuMDM2LTAuMjk5LDAuNTUxLTAuNTU3YzAuNzE3LTAuMzU4LDQuMzQ1LTEuMjQ3LDYuMjYxLTEuNTM0YzAuODk2LTAuMTMzLDEuMTQ0LDAuMDE1LDEuMTg0LDAuMDQ2JiMxMDsmIzk7JiM5OyYjOTtjMCwwLDAuMDE3LDAuMDQyLDAuMDMsMC4wNzdjLTAuMDUsMC4xMTItMC4yNjgsMC4zNjEtMC40ODEsMC41NDJsLTAuODYxLDAuNzMybDEuMTI4LDAuMDc3YzAuMzEzLDAuMDIxLDAuNjk1LDAuMTI2LDAuNzcsMC4yMTImIzEwOyYjOTsmIzk7JiM5O2MtMC4wMDIsMC4wNjUtMC4wOTksMC41MzMtMC44ODIsMC43ODljLTEuMDk3LDAuMzYxLTMuNzU4LDAuOTM0LTQuNjMyLDEuMTIyQzE2LjczLDEwLjExOSwxNC45NzgsMTAuNDk2LDE0LjgzNiwxMC4xMjJ6JiMxMDsmIzk7JiM5OyYjOTsgTTIzLjE5NCw2LjQ1OWwtMC4wMS0wLjA4OEwyMy4xOTQsNi40NTl6IE0yMy4xOTQsNi40NTlMMjMuMTk0LDYuNDU5TDIzLjE5NCw2LjQ1OUwyMy4xOTQsNi40NTl6Ii8+JiN4YTsJPC9nPiYjeGE7CTxnPiYjeGE7CQk8cmVjdCBoZWlnaHQ9IjcuMjc3IiB3aWR0aD0iMC45MTkiIHRyYW5zZm9ybT0ibWF0cml4KC0wLjI0NTUgLTAuOTY5NCAwLjk2OTQgLTAuMjQ1NSAxNS4wNDMzIDI4LjM5NjUpIiB5PSI0LjcwNiIgeD0iMTguMTEzIi8+JiN4YTsJPC9nPiYjeGE7CTxnPiYjeGE7CQk8cGF0aCBkPSJNMTcuNjUxLDM2Ljk2di0yLjAyN2MtMS4wMS0wLjEyNy0xLjgyNi0wLjM1Mi0yLjQ1Ny0wLjY3NGMtMC42MzEtMC4zMjQtMS4xNzYtMC44NDYtMS42MzUtMS41NyYjMTA7JiM5OyYjOTsmIzk7Yy0wLjQ1Ny0wLjcyMS0wLjcyNS0xLjYwNC0wLjc5OS0yLjY0NWwyLjAyNy0wLjM4N2MwLjE1NiwxLjA4LDAuNDMyLDEuODc1LDAuODI4LDIuMzgxYzAuNTY2LDAuNzE3LDEuMjQ0LDEuMTEzLDIuMDM1LDEuMTk1JiMxMDsmIzk7JiM5OyYjOTt2LTYuMzIyYy0wLjgyMi0wLjIxNS0xLjY2OC0wLjU2NC0yLjUzMS0xLjA0OWMtMC42NDEtMC4zNTctMS4xMzctMC44NTItMS40OC0xLjQ4NGMtMC4zNDgtMC42MzUtMC41MjEtMS4zNTUtMC41MjEtMi4xNjImIzEwOyYjOTsmIzk7JiM5O2MwLTEuNDMsMC41MDYtMi41OSwxLjUyLTMuNDc4YzAuNjc2LTAuNTk3LDEuNjgtMC45NjIsMy4wMTQtMS4wOTd2LTAuOTUzaDEuMTkxdjAuOTUzYzEuMTY0LDAuMTE0LDIuMDg4LDAuNDU4LDIuNzczLDEuMDM0JiMxMDsmIzk7JiM5OyYjOTtjMC44NzMsMC43MzQsMS40LDEuNzQxLDEuNTc4LDMuMDIxbC0yLjA1NywwLjMyOGMtMC4xMTktMC43OTktMC4zNjUtMS40MTItMC43NDQtMS44MzhjLTAuMzc3LTAuNDI4LTAuODk1LTAuNzA4LTEuNTUxLTAuODQ1JiMxMDsmIzk7JiM5OyYjOTt2NS43ODljMS4wMTQsMC4yNjYsMS42ODQsMC40NjksMi4wMSwwLjYxMWMwLjYyNywwLjI3NSwxLjEzNywwLjYxMSwxLjUzMSwxLjAwNnMwLjY5OSwwLjg2MywwLjkxLDEuNDA2JiMxMDsmIzk7JiM5OyYjOTtjMC4yMTMsMC41NDUsMC4zMTgsMS4xMzMsMC4zMTgsMS43NjZjMCwxLjM5NS0wLjQ0MywyLjU1Ny0xLjMyOCwzLjQ4NmMtMC44ODcsMC45MzItMi4wMzUsMS40MzItMy40NDEsMS40OTh2Mi4wNTdIMTcuNjUxeiYjMTA7JiM5OyYjOTsmIzk7IE0xNy42NTEsMTkuMzEyYy0wLjc3NywwLjExOS0xLjM4OSwwLjQzMy0xLjgzNCwwLjkzOGMtMC40NDcsMC41MDgtMC42NzIsMS4xMDktMC42NzIsMS44MDJjMCwwLjY4NiwwLjE5MSwxLjI2LDAuNTcsMS43MjMmIzEwOyYjOTsmIzk7JiM5O2MwLjM3OSwwLjQ2MSwxLjAyMywwLjgwOSwxLjkzNiwxLjA0NVYxOS4zMTJ6IE0xOC44NDIsMzMuMjM0YzAuNzgzLTAuMDk4LDEuNDMyLTAuNDM0LDEuOTQ1LTEuMDE2JiMxMDsmIzk7JiM5OyYjOTtjMC41MTItMC41OCwwLjc2OC0xLjI5NywwLjc2OC0yLjE1MmMwLTAuNzMtMC4xODItMS4zMTQtMC41NDktMS43NThjLTAuMzY1LTAuNDQxLTEuMDg2LTAuODAzLTIuMTY0LTEuMDg0VjMzLjIzNHoiLz4mI3hhOwk8L2c+JiN4YTs8L2c+JiN4YTs8L3N2Zz4=" vertex="1" parent="1">
          <mxGeometry x="460" y="340" width="36" height="41" as="geometry" />
        </mxCell>
        <mxCell id="hMHtxvA4B3zZOopVQEFz-22" value="" style="group" vertex="1" connectable="0" parent="1">
          <mxGeometry x="201.25" y="220" width="132.5" height="57" as="geometry" />
        </mxCell>
        <mxCell id="hMHtxvA4B3zZOopVQEFz-23" value="compromise&lt;div&gt;webserver availability&lt;/div&gt;" style="rounded=0;whiteSpace=wrap;html=1;" vertex="1" parent="hMHtxvA4B3zZOopVQEFz-22">
          <mxGeometry y="12.666666666666668" width="114.50617283950619" height="44.333333333333336" as="geometry" />
        </mxCell>
        <mxCell id="hMHtxvA4B3zZOopVQEFz-24" value="" style="shape=image;verticalLabelPosition=bottom;verticalAlign=top;imageAspect=0;aspect=fixed;image=data:image/svg+xml,PHN2ZyB4bWxucz0iaHR0cDovL3d3dy53My5vcmcvMjAwMC9zdmciIHhtbG5zOnhsaW5rPSImYW1wO25zX3hsaW5rOyIgeG1sOnNwYWNlPSJwcmVzZXJ2ZSIgb3ZlcmZsb3c9InZpc2libGUiIHZpZXdCb3g9IjAgMCA0Mi4zMzY5OTQxNzExNDI1OCA0MS43OTEwMDAzNjYyMTA5NCIgaGVpZ2h0PSI0MS43OTEwMDAzNjYyMTA5NCIgd2lkdGg9IjQyLjMzNjk5NDE3MTE0MjU4IiBpZD0iTGF5ZXJfMSIgdmVyc2lvbj0iMS4xIj4mI3hhOzxnPiYjeGE7CTxwb2x5Z29uIHBvaW50cz0iMjAuOTY1LDMwLjUwOCAxMC4zMzIsNDEuNTA4IDE1LjY1NCwyOC4wNDUgMi4wNDMsMzIuMzI0ICYjMTA7JiM5OyYjOTsxNC4xODksMjIuOTEyIDAuMTM1LDE3Ljk0NSAxNC4zNCwxNy45NDggMTIuNTA2LDEyLjQ0OCAxNy4yMzgsMTYuMTA1IDEzLjgzMiwwLjIyNyAyMy4xNjQsMTQuMDA4IDI2LjgzMiw4LjUwOCAyNi40NjUsMTQuNzQyICYjMTA7JiM5OyYjOTs0MS44NjUsNy43NzUgMjkuMDMxLDE5LjUwOCA0Mi4yMywyMy4xNzUgMjguNjY0LDI0LjY0MiAzOC43NTYsNDAuODc4IDI0LjQ2MywzMC4yOCAyMi43OTksMzYuMDA4IiBmaWxsPSIjRkVFODUxIi8+JiN4YTsJPHBhdGggZD0iTTEzLjQzNiwwLjMxMmMwLDAsMi43NzEsMTIuOTE2LDMuMTc0LDE0Ljc5NmMtMS4xNjQtMC44OTktNC45MS0zLjc5NC00LjkxLTMuNzk0czEuNzg3LDUuMzU5LDIuMDc3LDYuMjI5JiMxMDsmIzk7JiM5O2MtMS4wMzcsMC0xMy42NDMtMC4wMDItMTMuNjQzLTAuMDAyTDAsMTguMzI3YzAsMCwxMi4wOTEsNC4yNzIsMTMuMzU0LDQuNzJjLTEuMDYyLDAuODIzLTExLjU2LDguOTU3LTExLjU2LDguOTU3bDAuMzcsMC43MDcmIzEwOyYjOTsmIzk7YzAsMCwxMS4zNjctMy41NzMsMTIuODAxLTQuMDI0Yy0wLjU1MywxLjQtNS4wMSwxMi42NzQtNS4wMSwxMi42NzRsMC42NjcsMC40M2MwLDAsOS4zMi05LjY0MiwxMC4xNjktMTAuNTImIzEwOyYjOTsmIzk7YzAuMzMxLDAuOTkyLDIuMDMzLDYuMDk5LDIuMDMzLDYuMDk5czEuNi01LjUwNiwxLjg2NC02LjQxN2MwLjg3NSwwLjY0OSwxMy44MjUsMTAuMjUyLDEzLjgyNSwxMC4yNTJsMC41ODUtMC41MzkmIzEwOyYjOTsmIzk7YzAsMC05LjExNi0xNC42NjctOS43NTItMTUuNjg5YzEuMTYzLTAuMTI1LDEyLjkyNy0xLjM5NywxMi45MjctMS4zOTdsMC4wNjQtMC43OTNjMCwwLTExLjIzMi0zLjEyLTEyLjQ5NS0zLjQ3MSYjMTA7JiM5OyYjOTtjMC45OTEtMC45MDYsMTIuMjk1LTExLjI0LDEyLjI5NS0xMS4yNGwtMC40NC0wLjY2OGMwLDAtMTMuNjYzLDYuMTgxLTE0Ljc5LDYuNjkxYzAuMDYzLTEuMDY2LDAuNDE2LTcuMDU2LDAuNDE2LTcuMDU2JiMxMDsmIzk7JiM5O3MtMy42MSw1LjQxNC00LjE2Myw2LjI0MkMyMi41MzQsMTIuMzU1LDE0LjE2NywwLDE0LjE2NywwTDEzLjQzNiwwLjMxMnogTTE3LjYzNCwxNi4wMmMwLDAtMi4zMDUtMTAuNzQ0LTIuOTY5LTEzLjg0JiMxMDsmIzk7JiM5O2MxLjc4OSwyLjY0MSw4LjUwMiwxMi41NTUsOC41MDIsMTIuNTU1czIuMTgtMy4yNjksMy4xNzMtNC43NThjLTAuMTAyLDEuNzI3LTAuMzE4LDUuNDExLTAuMzE4LDUuNDExczEwLjM0OS00LjY4MiwxMy42OTMtNi4xOTUmIzEwOyYjOTsmIzk7Yy0yLjczNiwyLjUwMS0xMS40OTYsMTAuNTEtMTEuNDk2LDEwLjUxUzM3LjE3MywyMi4xOTEsNDAuMDg2LDIzYy0zLjAwMiwwLjMyNS0xMi4xMDUsMS4zMS0xMi4xMDUsMS4zMXM3LjUzNywxMi4xMjYsOS4zMSwxNC45NzkmIzEwOyYjOTsmIzk7Yy0yLjY0Ny0xLjk2NC0xMy4wNTQtOS42OC0xMy4wNTQtOS42OHMtMS4wMjEsMy41MTQtMS40NjQsNS4wNGMtMC40OTUtMS40ODMtMS42MzUtNC45MDEtMS42MzUtNC45MDFzLTcuNTQ5LDcuODExLTkuNjc5LDEwLjAxNCYjMTA7JiM5OyYjOTtjMS4xMDctMi44MDEsNC44ODUtMTIuMzU1LDQuODg1LTEyLjM1NVM3LjEzMSwzMC4zLDQuMDc3LDMxLjI2YzIuNTk5LTIuMDE1LDEwLjk0Ny04LjQ4MywxMC45NDctOC40ODNTNS42NTMsMTkuNDY1LDIuNDk4LDE4LjM1JiMxMDsmIzk7JiM5O2MzLjI4NSwwLjAwMSwxMi40MDQsMC4wMDMsMTIuNDA0LDAuMDAzcy0xLjA5MS0zLjI3Mi0xLjU5MS00Ljc3MWMxLjI3MywwLjk4NCw0LjU1NSwzLjUyMSw0LjU1NSwzLjUyMUwxNy42MzQsMTYuMDJ6Ii8+JiN4YTs8L2c+JiN4YTs8L3N2Zz4=" vertex="1" parent="hMHtxvA4B3zZOopVQEFz-22">
          <mxGeometry x="98.14814814814818" width="23.513492063492063" height="23.513492063492063" as="geometry" />
        </mxCell>
        <mxCell id="hMHtxvA4B3zZOopVQEFz-29" value="" style="group" vertex="1" connectable="0" parent="1">
          <mxGeometry x="200" y="548" width="123.75" height="55" as="geometry" />
        </mxCell>
        <mxCell id="hMHtxvA4B3zZOopVQEFz-30" value="server crash" style="rounded=0;whiteSpace=wrap;html=1;" vertex="1" parent="hMHtxvA4B3zZOopVQEFz-29">
          <mxGeometry y="9.521428571428572" width="100" height="40.47857142857143" as="geometry" />
        </mxCell>
        <mxCell id="hMHtxvA4B3zZOopVQEFz-31" value="" style="shape=image;verticalLabelPosition=bottom;verticalAlign=top;imageAspect=0;aspect=fixed;image=data:image/svg+xml,PHN2ZyB4bWxucz0iaHR0cDovL3d3dy53My5vcmcvMjAwMC9zdmciIHhtbG5zOnhsaW5rPSImYW1wO25zX3hsaW5rOyIgeG1sOnNwYWNlPSJwcmVzZXJ2ZSIgb3ZlcmZsb3c9InZpc2libGUiIHZpZXdCb3g9IjAgMCA0Mi4zMzY5OTQxNzExNDI1OCA0MS43OTEwMDAzNjYyMTA5NCIgaGVpZ2h0PSI0MS43OTEwMDAzNjYyMTA5NCIgd2lkdGg9IjQyLjMzNjk5NDE3MTE0MjU4IiBpZD0iTGF5ZXJfMSIgdmVyc2lvbj0iMS4xIj4mI3hhOzxnPiYjeGE7CTxwb2x5Z29uIHBvaW50cz0iMjAuOTY1LDMwLjUwOCAxMC4zMzIsNDEuNTA4IDE1LjY1NCwyOC4wNDUgMi4wNDMsMzIuMzI0ICYjMTA7JiM5OyYjOTsxNC4xODksMjIuOTEyIDAuMTM1LDE3Ljk0NSAxNC4zNCwxNy45NDggMTIuNTA2LDEyLjQ0OCAxNy4yMzgsMTYuMTA1IDEzLjgzMiwwLjIyNyAyMy4xNjQsMTQuMDA4IDI2LjgzMiw4LjUwOCAyNi40NjUsMTQuNzQyICYjMTA7JiM5OyYjOTs0MS44NjUsNy43NzUgMjkuMDMxLDE5LjUwOCA0Mi4yMywyMy4xNzUgMjguNjY0LDI0LjY0MiAzOC43NTYsNDAuODc4IDI0LjQ2MywzMC4yOCAyMi43OTksMzYuMDA4IiBmaWxsPSIjRkVFODUxIi8+JiN4YTsJPHBhdGggZD0iTTEzLjQzNiwwLjMxMmMwLDAsMi43NzEsMTIuOTE2LDMuMTc0LDE0Ljc5NmMtMS4xNjQtMC44OTktNC45MS0zLjc5NC00LjkxLTMuNzk0czEuNzg3LDUuMzU5LDIuMDc3LDYuMjI5JiMxMDsmIzk7JiM5O2MtMS4wMzcsMC0xMy42NDMtMC4wMDItMTMuNjQzLTAuMDAyTDAsMTguMzI3YzAsMCwxMi4wOTEsNC4yNzIsMTMuMzU0LDQuNzJjLTEuMDYyLDAuODIzLTExLjU2LDguOTU3LTExLjU2LDguOTU3bDAuMzcsMC43MDcmIzEwOyYjOTsmIzk7YzAsMCwxMS4zNjctMy41NzMsMTIuODAxLTQuMDI0Yy0wLjU1MywxLjQtNS4wMSwxMi42NzQtNS4wMSwxMi42NzRsMC42NjcsMC40M2MwLDAsOS4zMi05LjY0MiwxMC4xNjktMTAuNTImIzEwOyYjOTsmIzk7YzAuMzMxLDAuOTkyLDIuMDMzLDYuMDk5LDIuMDMzLDYuMDk5czEuNi01LjUwNiwxLjg2NC02LjQxN2MwLjg3NSwwLjY0OSwxMy44MjUsMTAuMjUyLDEzLjgyNSwxMC4yNTJsMC41ODUtMC41MzkmIzEwOyYjOTsmIzk7YzAsMC05LjExNi0xNC42NjctOS43NTItMTUuNjg5YzEuMTYzLTAuMTI1LDEyLjkyNy0xLjM5NywxMi45MjctMS4zOTdsMC4wNjQtMC43OTNjMCwwLTExLjIzMi0zLjEyLTEyLjQ5NS0zLjQ3MSYjMTA7JiM5OyYjOTtjMC45OTEtMC45MDYsMTIuMjk1LTExLjI0LDEyLjI5NS0xMS4yNGwtMC40NC0wLjY2OGMwLDAtMTMuNjYzLDYuMTgxLTE0Ljc5LDYuNjkxYzAuMDYzLTEuMDY2LDAuNDE2LTcuMDU2LDAuNDE2LTcuMDU2JiMxMDsmIzk7JiM5O3MtMy42MSw1LjQxNC00LjE2Myw2LjI0MkMyMi41MzQsMTIuMzU1LDE0LjE2NywwLDE0LjE2NywwTDEzLjQzNiwwLjMxMnogTTE3LjYzNCwxNi4wMmMwLDAtMi4zMDUtMTAuNzQ0LTIuOTY5LTEzLjg0JiMxMDsmIzk7JiM5O2MxLjc4OSwyLjY0MSw4LjUwMiwxMi41NTUsOC41MDIsMTIuNTU1czIuMTgtMy4yNjksMy4xNzMtNC43NThjLTAuMTAyLDEuNzI3LTAuMzE4LDUuNDExLTAuMzE4LDUuNDExczEwLjM0OS00LjY4MiwxMy42OTMtNi4xOTUmIzEwOyYjOTsmIzk7Yy0yLjczNiwyLjUwMS0xMS40OTYsMTAuNTEtMTEuNDk2LDEwLjUxUzM3LjE3MywyMi4xOTEsNDAuMDg2LDIzYy0zLjAwMiwwLjMyNS0xMi4xMDUsMS4zMS0xMi4xMDUsMS4zMXM3LjUzNywxMi4xMjYsOS4zMSwxNC45NzkmIzEwOyYjOTsmIzk7Yy0yLjY0Ny0xLjk2NC0xMy4wNTQtOS42OC0xMy4wNTQtOS42OHMtMS4wMjEsMy41MTQtMS40NjQsNS4wNGMtMC40OTUtMS40ODMtMS42MzUtNC45MDEtMS42MzUtNC45MDFzLTcuNTQ5LDcuODExLTkuNjc5LDEwLjAxNCYjMTA7JiM5OyYjOTtjMS4xMDctMi44MDEsNC44ODUtMTIuMzU1LDQuODg1LTEyLjM1NVM3LjEzMSwzMC4zLDQuMDc3LDMxLjI2YzIuNTk5LTIuMDE1LDEwLjk0Ny04LjQ4MywxMC45NDctOC40ODNTNS42NTMsMTkuNDY1LDIuNDk4LDE4LjM1JiMxMDsmIzk7JiM5O2MzLjI4NSwwLjAwMSwxMi40MDQsMC4wMDMsMTIuNDA0LDAuMDAzcy0xLjA5MS0zLjI3Mi0xLjU5MS00Ljc3MWMxLjI3MywwLjk4NCw0LjU1NSwzLjUyMSw0LjU1NSwzLjUyMUwxNy42MzQsMTYuMDJ6Ii8+JiN4YTs8L2c+JiN4YTs8L3N2Zz4=" vertex="1" parent="hMHtxvA4B3zZOopVQEFz-29">
          <mxGeometry x="87.60683760683762" width="19.999999999999996" height="19.999999999999996" as="geometry" />
        </mxCell>
        <mxCell id="hMHtxvA4B3zZOopVQEFz-32" value="" style="group" vertex="1" connectable="0" parent="hMHtxvA4B3zZOopVQEFz-29">
          <mxGeometry y="-5" width="123.75" height="60" as="geometry" />
        </mxCell>
        <mxCell id="hMHtxvA4B3zZOopVQEFz-33" value="Identity Theft (PII)" style="rounded=0;whiteSpace=wrap;html=1;" vertex="1" parent="hMHtxvA4B3zZOopVQEFz-32">
          <mxGeometry y="13.333333333333332" width="106.94444444444446" height="46.666666666666664" as="geometry" />
        </mxCell>
        <mxCell id="hMHtxvA4B3zZOopVQEFz-34" value="" style="shape=image;verticalLabelPosition=bottom;verticalAlign=top;imageAspect=0;aspect=fixed;image=data:image/svg+xml,PHN2ZyB4bWxucz0iaHR0cDovL3d3dy53My5vcmcvMjAwMC9zdmciIHhtbG5zOnhsaW5rPSImYW1wO25zX3hsaW5rOyIgeG1sOnNwYWNlPSJwcmVzZXJ2ZSIgb3ZlcmZsb3c9InZpc2libGUiIHZpZXdCb3g9IjAgMCA0Mi4zMzY5OTQxNzExNDI1OCA0MS43OTEwMDAzNjYyMTA5NCIgaGVpZ2h0PSI0MS43OTEwMDAzNjYyMTA5NCIgd2lkdGg9IjQyLjMzNjk5NDE3MTE0MjU4IiBpZD0iTGF5ZXJfMSIgdmVyc2lvbj0iMS4xIj4mI3hhOzxnPiYjeGE7CTxwb2x5Z29uIHBvaW50cz0iMjAuOTY1LDMwLjUwOCAxMC4zMzIsNDEuNTA4IDE1LjY1NCwyOC4wNDUgMi4wNDMsMzIuMzI0ICYjMTA7JiM5OyYjOTsxNC4xODksMjIuOTEyIDAuMTM1LDE3Ljk0NSAxNC4zNCwxNy45NDggMTIuNTA2LDEyLjQ0OCAxNy4yMzgsMTYuMTA1IDEzLjgzMiwwLjIyNyAyMy4xNjQsMTQuMDA4IDI2LjgzMiw4LjUwOCAyNi40NjUsMTQuNzQyICYjMTA7JiM5OyYjOTs0MS44NjUsNy43NzUgMjkuMDMxLDE5LjUwOCA0Mi4yMywyMy4xNzUgMjguNjY0LDI0LjY0MiAzOC43NTYsNDAuODc4IDI0LjQ2MywzMC4yOCAyMi43OTksMzYuMDA4IiBmaWxsPSIjRkVFODUxIi8+JiN4YTsJPHBhdGggZD0iTTEzLjQzNiwwLjMxMmMwLDAsMi43NzEsMTIuOTE2LDMuMTc0LDE0Ljc5NmMtMS4xNjQtMC44OTktNC45MS0zLjc5NC00LjkxLTMuNzk0czEuNzg3LDUuMzU5LDIuMDc3LDYuMjI5JiMxMDsmIzk7JiM5O2MtMS4wMzcsMC0xMy42NDMtMC4wMDItMTMuNjQzLTAuMDAyTDAsMTguMzI3YzAsMCwxMi4wOTEsNC4yNzIsMTMuMzU0LDQuNzJjLTEuMDYyLDAuODIzLTExLjU2LDguOTU3LTExLjU2LDguOTU3bDAuMzcsMC43MDcmIzEwOyYjOTsmIzk7YzAsMCwxMS4zNjctMy41NzMsMTIuODAxLTQuMDI0Yy0wLjU1MywxLjQtNS4wMSwxMi42NzQtNS4wMSwxMi42NzRsMC42NjcsMC40M2MwLDAsOS4zMi05LjY0MiwxMC4xNjktMTAuNTImIzEwOyYjOTsmIzk7YzAuMzMxLDAuOTkyLDIuMDMzLDYuMDk5LDIuMDMzLDYuMDk5czEuNi01LjUwNiwxLjg2NC02LjQxN2MwLjg3NSwwLjY0OSwxMy44MjUsMTAuMjUyLDEzLjgyNSwxMC4yNTJsMC41ODUtMC41MzkmIzEwOyYjOTsmIzk7YzAsMC05LjExNi0xNC42NjctOS43NTItMTUuNjg5YzEuMTYzLTAuMTI1LDEyLjkyNy0xLjM5NywxMi45MjctMS4zOTdsMC4wNjQtMC43OTNjMCwwLTExLjIzMi0zLjEyLTEyLjQ5NS0zLjQ3MSYjMTA7JiM5OyYjOTtjMC45OTEtMC45MDYsMTIuMjk1LTExLjI0LDEyLjI5NS0xMS4yNGwtMC40NC0wLjY2OGMwLDAtMTMuNjYzLDYuMTgxLTE0Ljc5LDYuNjkxYzAuMDYzLTEuMDY2LDAuNDE2LTcuMDU2LDAuNDE2LTcuMDU2JiMxMDsmIzk7JiM5O3MtMy42MSw1LjQxNC00LjE2Myw2LjI0MkMyMi41MzQsMTIuMzU1LDE0LjE2NywwLDE0LjE2NywwTDEzLjQzNiwwLjMxMnogTTE3LjYzNCwxNi4wMmMwLDAtMi4zMDUtMTAuNzQ0LTIuOTY5LTEzLjg0JiMxMDsmIzk7JiM5O2MxLjc4OSwyLjY0MSw4LjUwMiwxMi41NTUsOC41MDIsMTIuNTU1czIuMTgtMy4yNjksMy4xNzMtNC43NThjLTAuMTAyLDEuNzI3LTAuMzE4LDUuNDExLTAuMzE4LDUuNDExczEwLjM0OS00LjY4MiwxMy42OTMtNi4xOTUmIzEwOyYjOTsmIzk7Yy0yLjczNiwyLjUwMS0xMS40OTYsMTAuNTEtMTEuNDk2LDEwLjUxUzM3LjE3MywyMi4xOTEsNDAuMDg2LDIzYy0zLjAwMiwwLjMyNS0xMi4xMDUsMS4zMS0xMi4xMDUsMS4zMXM3LjUzNywxMi4xMjYsOS4zMSwxNC45NzkmIzEwOyYjOTsmIzk7Yy0yLjY0Ny0xLjk2NC0xMy4wNTQtOS42OC0xMy4wNTQtOS42OHMtMS4wMjEsMy41MTQtMS40NjQsNS4wNGMtMC40OTUtMS40ODMtMS42MzUtNC45MDEtMS42MzUtNC45MDFzLTcuNTQ5LDcuODExLTkuNjc5LDEwLjAxNCYjMTA7JiM5OyYjOTtjMS4xMDctMi44MDEsNC44ODUtMTIuMzU1LDQuODg1LTEyLjM1NVM3LjEzMSwzMC4zLDQuMDc3LDMxLjI2YzIuNTk5LTIuMDE1LDEwLjk0Ny04LjQ4MywxMC45NDctOC40ODNTNS42NTMsMTkuNDY1LDIuNDk4LDE4LjM1JiMxMDsmIzk7JiM5O2MzLjI4NSwwLjAwMSwxMi40MDQsMC4wMDMsMTIuNDA0LDAuMDAzcy0xLjA5MS0zLjI3Mi0xLjU5MS00Ljc3MWMxLjI3MywwLjk4NCw0LjU1NSwzLjUyMSw0LjU1NSwzLjUyMUwxNy42MzQsMTYuMDJ6Ii8+JiN4YTs8L2c+JiN4YTs8L3N2Zz4=" vertex="1" parent="hMHtxvA4B3zZOopVQEFz-32">
          <mxGeometry x="91.66666666666667" width="27.999999999999996" height="27.999999999999996" as="geometry" />
        </mxCell>
        <mxCell id="hMHtxvA4B3zZOopVQEFz-35" value="academic&#xa;information" style="shape=image;verticalLabelPosition=bottom;verticalAlign=top;imageAspect=0;aspect=fixed;image=data:image/svg+xml,PHN2ZyB4bWxucz0iaHR0cDovL3d3dy53My5vcmcvMjAwMC9zdmciIHhtbG5zOnhsaW5rPSImYW1wO25zX3hsaW5rOyIgeG1sOnNwYWNlPSJwcmVzZXJ2ZSIgb3ZlcmZsb3c9InZpc2libGUiIHZpZXdCb3g9IjAgMCAzNS41NDM5OTg3MTgyNjE3MiA0MS4wODgwMDEyNTEyMjA3IiBoZWlnaHQ9IjQxLjA4ODAwMTI1MTIyMDciIHdpZHRoPSIzNS41NDM5OTg3MTgyNjE3MiIgaWQ9IkxheWVyXzEiIHZlcnNpb249IjEuMSI+JiN4YTs8Zz4mI3hhOwk8Zz4mI3hhOwkJPHBhdGggZD0iTTE1Ljg3Nyw0LjA1NGMwLDAsMC43NDQtMy4zOTIsMS43MzgtMy42MDQmIzEwOyYjOTsmIzk7JiM5O2MwLjk5Mi0wLjIxMywxLjM0NiwzLjE4OSwxLjM0NiwzLjE4OXMxLjc3My0xLjg0MywyLjk3Ny0yLjE5N2MxLjIwNS0wLjM1NCwyLjE5OS0wLjA3LDEuMjc3LDAuOTkzJiMxMDsmIzk7JiM5OyYjOTtjLTAuOTIyLDEuMDYyLTIuMDE0LDQuNDYtMS45ODYsNi4wOTZjMC4wNzIsMy44OTgsMy43MzQsNS4xOSw1LjkzNCw2LjY0N2M2LjY0Myw0LjQwMiw3LjkyMiw4LjY0NCw3LjkyMiwxMy4zNjUmIzEwOyYjOTsmIzk7JiM5O2MwLDYuODgzLTYuNzIxLDEyLjA4Ni0xNy4yNTgsMTIuMDg2Yy0xMS43NjYsMC0xNy4zNjctNi4xNjItMTcuMzY3LTEyLjQ2M2MwLTUuNDU3LDIuOTgyLTkuNTI4LDcuMDk2LTExLjg2NyYjMTA7JiM5OyYjOTsmIzk7YzQuNDM2LTIuNTI1LDYuNjU4LTMuMzczLDguNS00Ljc5MWMxLjg0Mi0xLjQxNy0xLjkxNC01LjQ1OS0zLjQ3My02LjUyMWMtMS4yNDQtMC44NDktMS4yMDUtMC45OTMtMy4zMzItMS43NzImIzEwOyYjOTsmIzk7JiM5O2MwLDAsMS43NzctMS42MzIsMy42MTUtMS4wNjNjMi4xOTMsMC42NzgsNC4xMTEsMy4yNjEsNC4xMTEsMy4yNjEiIGZpbGw9IiNDMjkwNTQiLz4mI3hhOwkJPHBhdGggZD0iTTE1LjU5OSwzLjI4NWMtMC43MzEtMC42NDEtMS42MjctMS4yNzMtMi41OTctMS41NzNjLTIuMDY2LTAuNjM5LTMuOTgxLDEuMDktNC4wNjIsMS4xNjRsLTAuNTU2LDAuNTFsMC43MDgsMC4yNTkmIzEwOyYjOTsmIzk7JiM5O2MxLjY2NywwLjYxMSwxLjkzLDAuNzk5LDIuNjMyLDEuM2wwLjU5OSwwLjQyYzEuMjY5LDAuODY1LDMuNzI0LDMuNTA2LDMuNzY5LDUuMDUzYzAuMDA5LDAuMzIxLTAuMDkyLDAuNTUyLTAuMzE3LDAuNzI1JiMxMDsmIzk7JiM5OyYjOTtjLTEuMDYzLDAuODE5LTIuMjk5LDEuNDYzLTQuMDA5LDIuMzU1TDcuMzI4LDE1LjlDMi42NzEsMTguNTQ3LDAsMjMuMDE4LDAsMjguMTY2YzAsNi40MzIsNS41MTIsMTIuOTIyLDE3LjgyNywxMi45MjImIzEwOyYjOTsmIzk7JiM5O2MxMC40MzIsMCwxNy43MTctNS4xNTgsMTcuNzE3LTEyLjU0NWMwLTQuMzQzLTAuOTg0LTkuMDE0LTguMTI3LTEzLjc0OGwtMS4zMDctMC43OTJjLTIuMDQ3LTEuMTg4LTQuMzY3LTIuNTM1LTQuNDIyLTUuNDgxJiMxMDsmIzk7JiM5OyYjOTtjLTAuMDI1LTEuNTI5LDEuMDQzLTQuODI4LDEuODc0LTUuNzg2YzAuNjA1LTAuNjk4LDAuNTIyLTEuMTcsMC4zNDctMS40NDNjLTAuMzA3LTAuNDc5LTEuMDkyLTAuNTg3LTIuMS0wLjI5MiYjMTA7JiM5OyYjOTsmIzk7Yy0wLjg1NiwwLjI1Mi0xLjg2NiwxLjA5Mi0yLjUyMiwxLjY5NWMtMC4xNTctMC45MDUtMC40NjMtMi4xMS0xLjA0OC0yLjUzNUwxNy41MTksMEMxNi41NDYsMC4yMDgsMTUuOTIzLDIuMDM2LDE1LjU5OSwzLjI4NXomIzEwOyYjOTsmIzk7JiM5OyBNMTcuNzExLDAuODk4YzAuMjU4LDAuMTE4LDAuNjU2LDEuNDc0LDAuNzkzLDIuNzg4bDAuMTAzLDAuOTgybDAuNjg2LTAuNzExYzAuNDctMC40ODksMS44ODYtMS44MTMsMi43NzUtMi4wNzYmIzEwOyYjOTsmIzk7JiM5O2MwLjYxMi0wLjE4LDAuOTYyLTAuMTI0LDEuMDUzLTAuMDc3Yy0wLjAyOSwwLjAyMS0wLjA3NywwLjEyNi0wLjI1MiwwLjMyOWMtMC45NzksMS4xMjctMi4xLDQuNTI0LTIuMSw2LjMzNCYjMTA7JiM5OyYjOTsmIzk7YzAsMC4wMjQsMCwwLjA0NywwLjAwMSwwLjA3YzAuMDYzLDMuNDY1LDIuNzMzLDUuMDE1LDQuODc5LDYuMjZsMS4yNiwwLjc2M2M2LjQwNCw0LjI0NCw3LjcxNyw4LjI1OSw3LjcxNywxMi45ODImIzEwOyYjOTsmIzk7JiM5O2MwLDYuODQ2LTYuOTA4LDExLjYyNy0xNi43OTksMTEuNjI3Yy0xMS42OCwwLTE2LjkwOC02LjAyOS0xNi45MDgtMTIuMDA0YzAtNC44NzgsMi40MzgtOC45NTEsNi44NjMtMTEuNDY3bDQuNDA4LTIuMzg1JiMxMDsmIzk7JiM5OyYjOTtjMS43NTItMC45MTQsMy4wMTctMS41NzQsNC4xNDUtMi40NDJjMC40NDMtMC4zNDEsMC42NzYtMC44MjksMC42NzYtMS40MTVjMC0wLjAyMSwwLTAuMDQzLTAuMDAxLTAuMDY0JiMxMDsmIzk7JiM5OyYjOTtjLTAuMDYxLTIuMTA5LTMuMDA3LTQuOTkzLTQuMTY5LTUuNzg1bC0wLjU4My0wLjQwOWMtMC41OTgtMC40MjctMC45NzUtMC42NzctMi4wNS0xLjEwNmMwLjYxLTAuMzc2LDEuNTYyLTAuNzk5LDIuNTIxLTAuNTAyJiMxMDsmIzk7JiM5OyYjOTtjMi4wMjEsMC42MjUsMy44NiwzLjA3MSwzLjg3OCwzLjA5NmwwLjczNy0wLjU0OGMtMC4wMzQtMC4wNDYtMC40MDYtMC41MzItMC45ODItMS4xMjdDMTYuNzI4LDIuNDQsMTcuMzU0LDAuOTc1LDE3LjcxMSwwLjg5OHoiLz4mI3hhOwk8L2c+JiN4YTsJPGc+JiN4YTsJCTxwYXRoIGQ9Ik0yMi43MzcsNi41MWMtMC4wMzUtMC4zMTktMC4yMTMtMC43OTctMS43NTQtMC41NjcmIzEwOyYjOTsmIzk7JiM5O2MtMS44MzYsMC4yNzQtNS41NzIsMS4xNjQtNi4zOTgsMS41NzdjLTAuNzQ0LDAuMzczLTEuMDEsMC43OTktMC43MjcsMS4yMjNjMC4yODMsMC40MjYsMS40MTgsMC40OTcsMS40MTgsMC40OTcmIzEwOyYjOTsmIzk7JiM5O3MtMS4wNjIsMC41MzEtMC44NjksMS4wNDZjMC4yMjEsMC41ODEsMS4wMzUsMC41ODEsMi45OTYsMC4xNTlDMTguNTQ1LDEwLjE5OCwyMSw5LjY2NSwyMi4wODEsOS4zMSYjMTA7JiM5OyYjOTsmIzk7YzEuMDgyLTAuMzU0LDEuMjI3LTEuMDk3LDEuMTctMS4zNjRjLTAuMDk2LTAuNDYzLTEuMTctMC41MzItMS4xNy0wLjUzMlMyMi43NzIsNi44MjgsMjIuNzM3LDYuNTF6IiBmaWxsPSIjRkVFODRDIi8+JiN4YTsJCTxwYXRoIGQ9Ik0yMC45MTYsNS40ODhjLTEuNzI3LDAuMjU4LTUuNjA3LDEuMTU2LTYuNTM3LDEuNjIxYy0wLjYwNSwwLjMwNC0wLjk1MiwwLjY0Ny0xLjA1OSwxLjA1MWwwLjE1NiwwLjgzOCYjMTA7JiM5OyYjOTsmIzk7YzAuMTYsMC4yNCwwLjQ0OCwwLjM4NiwwLjc0NSwwLjQ5Yy0wLjE2NSwwLjE5My0wLjMsMC40MDktMC4zLDAuNjYyYzAsMC4wOTYsMC4wMTcsMC4xOTQsMC4wNTUsMC4yOTcmIzEwOyYjOTsmIzk7JiM5O2MwLjM5MiwxLjAzMiwxLjc2NywwLjgyNCwzLjUyMywwLjQ0N2MxLjUzOC0wLjMzMiwzLjcwMS0wLjgxMSw0LjcyNS0xLjE0N2MxLjEyNC0wLjM2OCwxLjQ5Ni0xLjE1OSwxLjQ5Ni0xLjY5MiYjMTA7JiM5OyYjOTsmIzk7YzAtMC4wNzMtMC4wMDctMC4xNDItMC4wMjEtMC4yMDRjLTAuMDc4LTAuMzc5LTAuNC0wLjU5Ni0wLjc0My0wLjcyNGMwLjEzMy0wLjE5NCwwLjI0MS0wLjM5NiwwLjI0MS0wLjU5NiYjMTA7JiM5OyYjOTsmIzk7YzAtMC4wMjQtMC4wMDItMC4wNDgtMC4wMDQtMC4wNzFsLTAuMzk4LTAuNzQ0QzIyLjQxOSw1LjQyNSwyMS44MjIsNS4zNTMsMjAuOTE2LDUuNDg4eiBNMTQuODM2LDEwLjEyMiYjMTA7JiM5OyYjOTsmIzk7YzAuMDM1LTAuMDY3LDAuMzUyLTAuMzI0LDAuNjQ2LTAuNDcybDEuNTA0LTAuNzU5bC0xLjY4MS0wLjExYy0wLjQ1LTAuMDI5LTAuOTc4LTAuMTc1LTEuMDY1LTAuMjkzJiMxMDsmIzk7JiM5OyYjOTtjLTAuMDI2LTAuMTEzLDAuMDM2LTAuMjk5LDAuNTUxLTAuNTU3YzAuNzE3LTAuMzU4LDQuMzQ1LTEuMjQ3LDYuMjYxLTEuNTM0YzAuODk2LTAuMTMzLDEuMTQ0LDAuMDE1LDEuMTg0LDAuMDQ2JiMxMDsmIzk7JiM5OyYjOTtjMCwwLDAuMDE3LDAuMDQyLDAuMDMsMC4wNzdjLTAuMDUsMC4xMTItMC4yNjgsMC4zNjEtMC40ODEsMC41NDJsLTAuODYxLDAuNzMybDEuMTI4LDAuMDc3YzAuMzEzLDAuMDIxLDAuNjk1LDAuMTI2LDAuNzcsMC4yMTImIzEwOyYjOTsmIzk7JiM5O2MtMC4wMDIsMC4wNjUtMC4wOTksMC41MzMtMC44ODIsMC43ODljLTEuMDk3LDAuMzYxLTMuNzU4LDAuOTM0LTQuNjMyLDEuMTIyQzE2LjczLDEwLjExOSwxNC45NzgsMTAuNDk2LDE0LjgzNiwxMC4xMjJ6JiMxMDsmIzk7JiM5OyYjOTsgTTIzLjE5NCw2LjQ1OWwtMC4wMS0wLjA4OEwyMy4xOTQsNi40NTl6IE0yMy4xOTQsNi40NTlMMjMuMTk0LDYuNDU5TDIzLjE5NCw2LjQ1OUwyMy4xOTQsNi40NTl6Ii8+JiN4YTsJPC9nPiYjeGE7CTxnPiYjeGE7CQk8cmVjdCBoZWlnaHQ9IjcuMjc3IiB3aWR0aD0iMC45MTkiIHRyYW5zZm9ybT0ibWF0cml4KC0wLjI0NTUgLTAuOTY5NCAwLjk2OTQgLTAuMjQ1NSAxNS4wNDMzIDI4LjM5NjUpIiB5PSI0LjcwNiIgeD0iMTguMTEzIi8+JiN4YTsJPC9nPiYjeGE7CTxnPiYjeGE7CQk8cGF0aCBkPSJNMTcuNjUxLDM2Ljk2di0yLjAyN2MtMS4wMS0wLjEyNy0xLjgyNi0wLjM1Mi0yLjQ1Ny0wLjY3NGMtMC42MzEtMC4zMjQtMS4xNzYtMC44NDYtMS42MzUtMS41NyYjMTA7JiM5OyYjOTsmIzk7Yy0wLjQ1Ny0wLjcyMS0wLjcyNS0xLjYwNC0wLjc5OS0yLjY0NWwyLjAyNy0wLjM4N2MwLjE1NiwxLjA4LDAuNDMyLDEuODc1LDAuODI4LDIuMzgxYzAuNTY2LDAuNzE3LDEuMjQ0LDEuMTEzLDIuMDM1LDEuMTk1JiMxMDsmIzk7JiM5OyYjOTt2LTYuMzIyYy0wLjgyMi0wLjIxNS0xLjY2OC0wLjU2NC0yLjUzMS0xLjA0OWMtMC42NDEtMC4zNTctMS4xMzctMC44NTItMS40OC0xLjQ4NGMtMC4zNDgtMC42MzUtMC41MjEtMS4zNTUtMC41MjEtMi4xNjImIzEwOyYjOTsmIzk7JiM5O2MwLTEuNDMsMC41MDYtMi41OSwxLjUyLTMuNDc4YzAuNjc2LTAuNTk3LDEuNjgtMC45NjIsMy4wMTQtMS4wOTd2LTAuOTUzaDEuMTkxdjAuOTUzYzEuMTY0LDAuMTE0LDIuMDg4LDAuNDU4LDIuNzczLDEuMDM0JiMxMDsmIzk7JiM5OyYjOTtjMC44NzMsMC43MzQsMS40LDEuNzQxLDEuNTc4LDMuMDIxbC0yLjA1NywwLjMyOGMtMC4xMTktMC43OTktMC4zNjUtMS40MTItMC43NDQtMS44MzhjLTAuMzc3LTAuNDI4LTAuODk1LTAuNzA4LTEuNTUxLTAuODQ1JiMxMDsmIzk7JiM5OyYjOTt2NS43ODljMS4wMTQsMC4yNjYsMS42ODQsMC40NjksMi4wMSwwLjYxMWMwLjYyNywwLjI3NSwxLjEzNywwLjYxMSwxLjUzMSwxLjAwNnMwLjY5OSwwLjg2MywwLjkxLDEuNDA2JiMxMDsmIzk7JiM5OyYjOTtjMC4yMTMsMC41NDUsMC4zMTgsMS4xMzMsMC4zMTgsMS43NjZjMCwxLjM5NS0wLjQ0MywyLjU1Ny0xLjMyOCwzLjQ4NmMtMC44ODcsMC45MzItMi4wMzUsMS40MzItMy40NDEsMS40OTh2Mi4wNTdIMTcuNjUxeiYjMTA7JiM5OyYjOTsmIzk7IE0xNy42NTEsMTkuMzEyYy0wLjc3NywwLjExOS0xLjM4OSwwLjQzMy0xLjgzNCwwLjkzOGMtMC40NDcsMC41MDgtMC42NzIsMS4xMDktMC42NzIsMS44MDJjMCwwLjY4NiwwLjE5MSwxLjI2LDAuNTcsMS43MjMmIzEwOyYjOTsmIzk7JiM5O2MwLjM3OSwwLjQ2MSwxLjAyMywwLjgwOSwxLjkzNiwxLjA0NVYxOS4zMTJ6IE0xOC44NDIsMzMuMjM0YzAuNzgzLTAuMDk4LDEuNDMyLTAuNDM0LDEuOTQ1LTEuMDE2JiMxMDsmIzk7JiM5OyYjOTtjMC41MTItMC41OCwwLjc2OC0xLjI5NywwLjc2OC0yLjE1MmMwLTAuNzMtMC4xODItMS4zMTQtMC41NDktMS43NThjLTAuMzY1LTAuNDQxLTEuMDg2LTAuODAzLTIuMTY0LTEuMDg0VjMzLjIzNHoiLz4mI3hhOwk8L2c+JiN4YTs8L2c+JiN4YTs8L3N2Zz4=" vertex="1" parent="1">
          <mxGeometry x="460" y="562" width="36" height="41" as="geometry" />
        </mxCell>
        <mxCell id="hMHtxvA4B3zZOopVQEFz-37" value="" style="group" vertex="1" connectable="0" parent="1">
          <mxGeometry x="201.25" y="378" width="125" height="60" as="geometry" />
        </mxCell>
        <mxCell id="hMHtxvA4B3zZOopVQEFz-38" value="compromise&lt;div&gt;confidential data&lt;/div&gt;" style="rounded=0;whiteSpace=wrap;html=1;" vertex="1" parent="hMHtxvA4B3zZOopVQEFz-37">
          <mxGeometry y="13.333333333333334" width="108.0246913580247" height="46.66666666666667" as="geometry" />
        </mxCell>
        <mxCell id="hMHtxvA4B3zZOopVQEFz-39" value="" style="shape=image;verticalLabelPosition=bottom;verticalAlign=top;imageAspect=0;aspect=fixed;image=data:image/svg+xml,PHN2ZyB4bWxucz0iaHR0cDovL3d3dy53My5vcmcvMjAwMC9zdmciIHhtbG5zOnhsaW5rPSImYW1wO25zX3hsaW5rOyIgeG1sOnNwYWNlPSJwcmVzZXJ2ZSIgb3ZlcmZsb3c9InZpc2libGUiIHZpZXdCb3g9IjAgMCA0Mi4zMzY5OTQxNzExNDI1OCA0MS43OTEwMDAzNjYyMTA5NCIgaGVpZ2h0PSI0MS43OTEwMDAzNjYyMTA5NCIgd2lkdGg9IjQyLjMzNjk5NDE3MTE0MjU4IiBpZD0iTGF5ZXJfMSIgdmVyc2lvbj0iMS4xIj4mI3hhOzxnPiYjeGE7CTxwb2x5Z29uIHBvaW50cz0iMjAuOTY1LDMwLjUwOCAxMC4zMzIsNDEuNTA4IDE1LjY1NCwyOC4wNDUgMi4wNDMsMzIuMzI0ICYjMTA7JiM5OyYjOTsxNC4xODksMjIuOTEyIDAuMTM1LDE3Ljk0NSAxNC4zNCwxNy45NDggMTIuNTA2LDEyLjQ0OCAxNy4yMzgsMTYuMTA1IDEzLjgzMiwwLjIyNyAyMy4xNjQsMTQuMDA4IDI2LjgzMiw4LjUwOCAyNi40NjUsMTQuNzQyICYjMTA7JiM5OyYjOTs0MS44NjUsNy43NzUgMjkuMDMxLDE5LjUwOCA0Mi4yMywyMy4xNzUgMjguNjY0LDI0LjY0MiAzOC43NTYsNDAuODc4IDI0LjQ2MywzMC4yOCAyMi43OTksMzYuMDA4IiBmaWxsPSIjRkVFODUxIi8+JiN4YTsJPHBhdGggZD0iTTEzLjQzNiwwLjMxMmMwLDAsMi43NzEsMTIuOTE2LDMuMTc0LDE0Ljc5NmMtMS4xNjQtMC44OTktNC45MS0zLjc5NC00LjkxLTMuNzk0czEuNzg3LDUuMzU5LDIuMDc3LDYuMjI5JiMxMDsmIzk7JiM5O2MtMS4wMzcsMC0xMy42NDMtMC4wMDItMTMuNjQzLTAuMDAyTDAsMTguMzI3YzAsMCwxMi4wOTEsNC4yNzIsMTMuMzU0LDQuNzJjLTEuMDYyLDAuODIzLTExLjU2LDguOTU3LTExLjU2LDguOTU3bDAuMzcsMC43MDcmIzEwOyYjOTsmIzk7YzAsMCwxMS4zNjctMy41NzMsMTIuODAxLTQuMDI0Yy0wLjU1MywxLjQtNS4wMSwxMi42NzQtNS4wMSwxMi42NzRsMC42NjcsMC40M2MwLDAsOS4zMi05LjY0MiwxMC4xNjktMTAuNTImIzEwOyYjOTsmIzk7YzAuMzMxLDAuOTkyLDIuMDMzLDYuMDk5LDIuMDMzLDYuMDk5czEuNi01LjUwNiwxLjg2NC02LjQxN2MwLjg3NSwwLjY0OSwxMy44MjUsMTAuMjUyLDEzLjgyNSwxMC4yNTJsMC41ODUtMC41MzkmIzEwOyYjOTsmIzk7YzAsMC05LjExNi0xNC42NjctOS43NTItMTUuNjg5YzEuMTYzLTAuMTI1LDEyLjkyNy0xLjM5NywxMi45MjctMS4zOTdsMC4wNjQtMC43OTNjMCwwLTExLjIzMi0zLjEyLTEyLjQ5NS0zLjQ3MSYjMTA7JiM5OyYjOTtjMC45OTEtMC45MDYsMTIuMjk1LTExLjI0LDEyLjI5NS0xMS4yNGwtMC40NC0wLjY2OGMwLDAtMTMuNjYzLDYuMTgxLTE0Ljc5LDYuNjkxYzAuMDYzLTEuMDY2LDAuNDE2LTcuMDU2LDAuNDE2LTcuMDU2JiMxMDsmIzk7JiM5O3MtMy42MSw1LjQxNC00LjE2Myw2LjI0MkMyMi41MzQsMTIuMzU1LDE0LjE2NywwLDE0LjE2NywwTDEzLjQzNiwwLjMxMnogTTE3LjYzNCwxNi4wMmMwLDAtMi4zMDUtMTAuNzQ0LTIuOTY5LTEzLjg0JiMxMDsmIzk7JiM5O2MxLjc4OSwyLjY0MSw4LjUwMiwxMi41NTUsOC41MDIsMTIuNTU1czIuMTgtMy4yNjksMy4xNzMtNC43NThjLTAuMTAyLDEuNzI3LTAuMzE4LDUuNDExLTAuMzE4LDUuNDExczEwLjM0OS00LjY4MiwxMy42OTMtNi4xOTUmIzEwOyYjOTsmIzk7Yy0yLjczNiwyLjUwMS0xMS40OTYsMTAuNTEtMTEuNDk2LDEwLjUxUzM3LjE3MywyMi4xOTEsNDAuMDg2LDIzYy0zLjAwMiwwLjMyNS0xMi4xMDUsMS4zMS0xMi4xMDUsMS4zMXM3LjUzNywxMi4xMjYsOS4zMSwxNC45NzkmIzEwOyYjOTsmIzk7Yy0yLjY0Ny0xLjk2NC0xMy4wNTQtOS42OC0xMy4wNTQtOS42OHMtMS4wMjEsMy41MTQtMS40NjQsNS4wNGMtMC40OTUtMS40ODMtMS42MzUtNC45MDEtMS42MzUtNC45MDFzLTcuNTQ5LDcuODExLTkuNjc5LDEwLjAxNCYjMTA7JiM5OyYjOTtjMS4xMDctMi44MDEsNC44ODUtMTIuMzU1LDQuODg1LTEyLjM1NVM3LjEzMSwzMC4zLDQuMDc3LDMxLjI2YzIuNTk5LTIuMDE1LDEwLjk0Ny04LjQ4MywxMC45NDctOC40ODNTNS42NTMsMTkuNDY1LDIuNDk4LDE4LjM1JiMxMDsmIzk7JiM5O2MzLjI4NSwwLjAwMSwxMi40MDQsMC4wMDMsMTIuNDA0LDAuMDAzcy0xLjA5MS0zLjI3Mi0xLjU5MS00Ljc3MWMxLjI3MywwLjk4NCw0LjU1NSwzLjUyMSw0LjU1NSwzLjUyMUwxNy42MzQsMTYuMDJ6Ii8+JiN4YTs8L2c+JiN4YTs8L3N2Zz4=" vertex="1" parent="hMHtxvA4B3zZOopVQEFz-37">
          <mxGeometry x="92.59259259259261" width="28" height="28" as="geometry" />
        </mxCell>
        <mxCell id="hMHtxvA4B3zZOopVQEFz-44" style="edgeStyle=orthogonalEdgeStyle;rounded=0;orthogonalLoop=1;jettySize=auto;html=1;exitX=0.5;exitY=1;exitDx=0;exitDy=0;" edge="1" parent="1" source="hMHtxvA4B3zZOopVQEFz-20" target="hMHtxvA4B3zZOopVQEFz-20">
          <mxGeometry relative="1" as="geometry" />
        </mxCell>
        <mxCell id="hMHtxvA4B3zZOopVQEFz-62" value="" style="endArrow=classic;html=1;rounded=0;exitX=1;exitY=0.5;exitDx=0;exitDy=0;" edge="1" parent="1" source="hMHtxvA4B3zZOopVQEFz-17" target="hMHtxvA4B3zZOopVQEFz-35">
          <mxGeometry width="50" height="50" relative="1" as="geometry">
            <mxPoint x="766" y="371" as="sourcePoint" />
            <mxPoint x="881" y="370" as="targetPoint" />
          </mxGeometry>
        </mxCell>
        <mxCell id="hMHtxvA4B3zZOopVQEFz-63" value="minor" style="edgeLabel;html=1;align=center;verticalAlign=middle;resizable=0;points=[];" vertex="1" connectable="0" parent="hMHtxvA4B3zZOopVQEFz-62">
          <mxGeometry x="0.0155" relative="1" as="geometry">
            <mxPoint x="15" y="6" as="offset" />
          </mxGeometry>
        </mxCell>
        <mxCell id="hMHtxvA4B3zZOopVQEFz-65" value="" style="endArrow=classic;html=1;rounded=0;exitX=1;exitY=0.5;exitDx=0;exitDy=0;entryX=0;entryY=0.5;entryDx=0;entryDy=0;" edge="1" parent="1" source="hMHtxvA4B3zZOopVQEFz-23" target="hMHtxvA4B3zZOopVQEFz-19">
          <mxGeometry width="50" height="50" relative="1" as="geometry">
            <mxPoint x="766" y="260" as="sourcePoint" />
            <mxPoint x="933" y="435" as="targetPoint" />
          </mxGeometry>
        </mxCell>
        <mxCell id="hMHtxvA4B3zZOopVQEFz-66" value="major" style="edgeLabel;html=1;align=center;verticalAlign=middle;resizable=0;points=[];" vertex="1" connectable="0" parent="hMHtxvA4B3zZOopVQEFz-65">
          <mxGeometry x="-0.3187" y="2" relative="1" as="geometry">
            <mxPoint as="offset" />
          </mxGeometry>
        </mxCell>
        <mxCell id="hMHtxvA4B3zZOopVQEFz-68" value="" style="endArrow=classic;html=1;rounded=0;exitX=1;exitY=0.5;exitDx=0;exitDy=0;entryX=0;entryY=0.5;entryDx=0;entryDy=0;" edge="1" parent="1" source="hMHtxvA4B3zZOopVQEFz-33" target="hMHtxvA4B3zZOopVQEFz-20">
          <mxGeometry width="50" height="50" relative="1" as="geometry">
            <mxPoint x="766" y="500" as="sourcePoint" />
            <mxPoint x="933" y="675" as="targetPoint" />
          </mxGeometry>
        </mxCell>
        <mxCell id="hMHtxvA4B3zZOopVQEFz-69" value="catastrophic" style="edgeLabel;html=1;align=center;verticalAlign=middle;resizable=0;points=[];" vertex="1" connectable="0" parent="hMHtxvA4B3zZOopVQEFz-68">
          <mxGeometry x="0.4171" y="1" relative="1" as="geometry">
            <mxPoint x="14" y="-4" as="offset" />
          </mxGeometry>
        </mxCell>
        <mxCell id="hMHtxvA4B3zZOopVQEFz-70" value="" style="endArrow=classic;html=1;rounded=0;exitX=1;exitY=0.5;exitDx=0;exitDy=0;" edge="1" parent="1" source="hMHtxvA4B3zZOopVQEFz-38" target="hMHtxvA4B3zZOopVQEFz-35">
          <mxGeometry width="50" height="50" relative="1" as="geometry">
            <mxPoint x="756" y="690" as="sourcePoint" />
            <mxPoint x="923" y="865" as="targetPoint" />
          </mxGeometry>
        </mxCell>
        <mxCell id="hMHtxvA4B3zZOopVQEFz-71" value="medium" style="edgeLabel;html=1;align=center;verticalAlign=middle;resizable=0;points=[];" vertex="1" connectable="0" parent="hMHtxvA4B3zZOopVQEFz-70">
          <mxGeometry x="0.4075" y="1" relative="1" as="geometry">
            <mxPoint x="17" y="13" as="offset" />
          </mxGeometry>
        </mxCell>
        <mxCell id="hMHtxvA4B3zZOopVQEFz-76" value="" style="group" vertex="1" connectable="0" parent="1">
          <mxGeometry x="201.25" y="298" width="132.5" height="57" as="geometry" />
        </mxCell>
        <mxCell id="hMHtxvA4B3zZOopVQEFz-77" value="compromise&lt;div&gt;webserver integrity&lt;/div&gt;" style="rounded=0;whiteSpace=wrap;html=1;" vertex="1" parent="hMHtxvA4B3zZOopVQEFz-76">
          <mxGeometry y="12.666666666666668" width="114.50617283950619" height="44.333333333333336" as="geometry" />
        </mxCell>
        <mxCell id="hMHtxvA4B3zZOopVQEFz-78" value="" style="shape=image;verticalLabelPosition=bottom;verticalAlign=top;imageAspect=0;aspect=fixed;image=data:image/svg+xml,PHN2ZyB4bWxucz0iaHR0cDovL3d3dy53My5vcmcvMjAwMC9zdmciIHhtbG5zOnhsaW5rPSImYW1wO25zX3hsaW5rOyIgeG1sOnNwYWNlPSJwcmVzZXJ2ZSIgb3ZlcmZsb3c9InZpc2libGUiIHZpZXdCb3g9IjAgMCA0Mi4zMzY5OTQxNzExNDI1OCA0MS43OTEwMDAzNjYyMTA5NCIgaGVpZ2h0PSI0MS43OTEwMDAzNjYyMTA5NCIgd2lkdGg9IjQyLjMzNjk5NDE3MTE0MjU4IiBpZD0iTGF5ZXJfMSIgdmVyc2lvbj0iMS4xIj4mI3hhOzxnPiYjeGE7CTxwb2x5Z29uIHBvaW50cz0iMjAuOTY1LDMwLjUwOCAxMC4zMzIsNDEuNTA4IDE1LjY1NCwyOC4wNDUgMi4wNDMsMzIuMzI0ICYjMTA7JiM5OyYjOTsxNC4xODksMjIuOTEyIDAuMTM1LDE3Ljk0NSAxNC4zNCwxNy45NDggMTIuNTA2LDEyLjQ0OCAxNy4yMzgsMTYuMTA1IDEzLjgzMiwwLjIyNyAyMy4xNjQsMTQuMDA4IDI2LjgzMiw4LjUwOCAyNi40NjUsMTQuNzQyICYjMTA7JiM5OyYjOTs0MS44NjUsNy43NzUgMjkuMDMxLDE5LjUwOCA0Mi4yMywyMy4xNzUgMjguNjY0LDI0LjY0MiAzOC43NTYsNDAuODc4IDI0LjQ2MywzMC4yOCAyMi43OTksMzYuMDA4IiBmaWxsPSIjRkVFODUxIi8+JiN4YTsJPHBhdGggZD0iTTEzLjQzNiwwLjMxMmMwLDAsMi43NzEsMTIuOTE2LDMuMTc0LDE0Ljc5NmMtMS4xNjQtMC44OTktNC45MS0zLjc5NC00LjkxLTMuNzk0czEuNzg3LDUuMzU5LDIuMDc3LDYuMjI5JiMxMDsmIzk7JiM5O2MtMS4wMzcsMC0xMy42NDMtMC4wMDItMTMuNjQzLTAuMDAyTDAsMTguMzI3YzAsMCwxMi4wOTEsNC4yNzIsMTMuMzU0LDQuNzJjLTEuMDYyLDAuODIzLTExLjU2LDguOTU3LTExLjU2LDguOTU3bDAuMzcsMC43MDcmIzEwOyYjOTsmIzk7YzAsMCwxMS4zNjctMy41NzMsMTIuODAxLTQuMDI0Yy0wLjU1MywxLjQtNS4wMSwxMi42NzQtNS4wMSwxMi42NzRsMC42NjcsMC40M2MwLDAsOS4zMi05LjY0MiwxMC4xNjktMTAuNTImIzEwOyYjOTsmIzk7YzAuMzMxLDAuOTkyLDIuMDMzLDYuMDk5LDIuMDMzLDYuMDk5czEuNi01LjUwNiwxLjg2NC02LjQxN2MwLjg3NSwwLjY0OSwxMy44MjUsMTAuMjUyLDEzLjgyNSwxMC4yNTJsMC41ODUtMC41MzkmIzEwOyYjOTsmIzk7YzAsMC05LjExNi0xNC42NjctOS43NTItMTUuNjg5YzEuMTYzLTAuMTI1LDEyLjkyNy0xLjM5NywxMi45MjctMS4zOTdsMC4wNjQtMC43OTNjMCwwLTExLjIzMi0zLjEyLTEyLjQ5NS0zLjQ3MSYjMTA7JiM5OyYjOTtjMC45OTEtMC45MDYsMTIuMjk1LTExLjI0LDEyLjI5NS0xMS4yNGwtMC40NC0wLjY2OGMwLDAtMTMuNjYzLDYuMTgxLTE0Ljc5LDYuNjkxYzAuMDYzLTEuMDY2LDAuNDE2LTcuMDU2LDAuNDE2LTcuMDU2JiMxMDsmIzk7JiM5O3MtMy42MSw1LjQxNC00LjE2Myw2LjI0MkMyMi41MzQsMTIuMzU1LDE0LjE2NywwLDE0LjE2NywwTDEzLjQzNiwwLjMxMnogTTE3LjYzNCwxNi4wMmMwLDAtMi4zMDUtMTAuNzQ0LTIuOTY5LTEzLjg0JiMxMDsmIzk7JiM5O2MxLjc4OSwyLjY0MSw4LjUwMiwxMi41NTUsOC41MDIsMTIuNTU1czIuMTgtMy4yNjksMy4xNzMtNC43NThjLTAuMTAyLDEuNzI3LTAuMzE4LDUuNDExLTAuMzE4LDUuNDExczEwLjM0OS00LjY4MiwxMy42OTMtNi4xOTUmIzEwOyYjOTsmIzk7Yy0yLjczNiwyLjUwMS0xMS40OTYsMTAuNTEtMTEuNDk2LDEwLjUxUzM3LjE3MywyMi4xOTEsNDAuMDg2LDIzYy0zLjAwMiwwLjMyNS0xMi4xMDUsMS4zMS0xMi4xMDUsMS4zMXM3LjUzNywxMi4xMjYsOS4zMSwxNC45NzkmIzEwOyYjOTsmIzk7Yy0yLjY0Ny0xLjk2NC0xMy4wNTQtOS42OC0xMy4wNTQtOS42OHMtMS4wMjEsMy41MTQtMS40NjQsNS4wNGMtMC40OTUtMS40ODMtMS42MzUtNC45MDEtMS42MzUtNC45MDFzLTcuNTQ5LDcuODExLTkuNjc5LDEwLjAxNCYjMTA7JiM5OyYjOTtjMS4xMDctMi44MDEsNC44ODUtMTIuMzU1LDQuODg1LTEyLjM1NVM3LjEzMSwzMC4zLDQuMDc3LDMxLjI2YzIuNTk5LTIuMDE1LDEwLjk0Ny04LjQ4MywxMC45NDctOC40ODNTNS42NTMsMTkuNDY1LDIuNDk4LDE4LjM1JiMxMDsmIzk7JiM5O2MzLjI4NSwwLjAwMSwxMi40MDQsMC4wMDMsMTIuNDA0LDAuMDAzcy0xLjA5MS0zLjI3Mi0xLjU5MS00Ljc3MWMxLjI3MywwLjk4NCw0LjU1NSwzLjUyMSw0LjU1NSwzLjUyMUwxNy42MzQsMTYuMDJ6Ii8+JiN4YTs8L2c+JiN4YTs8L3N2Zz4=" vertex="1" parent="hMHtxvA4B3zZOopVQEFz-76">
          <mxGeometry x="98.14814814814818" width="23.513492063492063" height="23.513492063492063" as="geometry" />
        </mxCell>
        <mxCell id="hMHtxvA4B3zZOopVQEFz-85" value="" style="endArrow=classic;html=1;rounded=0;exitX=1;exitY=0.5;exitDx=0;exitDy=0;entryX=0;entryY=0.5;entryDx=0;entryDy=0;" edge="1" parent="1" source="hMHtxvA4B3zZOopVQEFz-17" target="hMHtxvA4B3zZOopVQEFz-20">
          <mxGeometry width="50" height="50" relative="1" as="geometry">
            <mxPoint x="796" y="530" as="sourcePoint" />
            <mxPoint x="915" y="758" as="targetPoint" />
          </mxGeometry>
        </mxCell>
        <mxCell id="hMHtxvA4B3zZOopVQEFz-86" value="medium" style="edgeLabel;html=1;align=center;verticalAlign=middle;resizable=0;points=[];" vertex="1" connectable="0" parent="hMHtxvA4B3zZOopVQEFz-85">
          <mxGeometry x="0.4075" y="1" relative="1" as="geometry">
            <mxPoint x="-65" y="13" as="offset" />
          </mxGeometry>
        </mxCell>
        <mxCell id="hMHtxvA4B3zZOopVQEFz-90" value="" style="endArrow=classic;html=1;rounded=0;exitX=1;exitY=0.5;exitDx=0;exitDy=0;entryX=0;entryY=0.75;entryDx=0;entryDy=0;" edge="1" parent="1" source="hMHtxvA4B3zZOopVQEFz-77" target="hMHtxvA4B3zZOopVQEFz-19">
          <mxGeometry width="50" height="50" relative="1" as="geometry">
            <mxPoint x="806" y="427" as="sourcePoint" />
            <mxPoint x="850" y="400" as="targetPoint" />
          </mxGeometry>
        </mxCell>
        <mxCell id="hMHtxvA4B3zZOopVQEFz-91" value="major" style="edgeLabel;html=1;align=center;verticalAlign=middle;resizable=0;points=[];" vertex="1" connectable="0" parent="hMHtxvA4B3zZOopVQEFz-90">
          <mxGeometry x="-0.1652" y="-1" relative="1" as="geometry">
            <mxPoint as="offset" />
          </mxGeometry>
        </mxCell>
        <mxCell id="hMHtxvA4B3zZOopVQEFz-96" value="" style="endArrow=classic;html=1;rounded=0;exitX=1;exitY=0.5;exitDx=0;exitDy=0;entryX=0;entryY=0.75;entryDx=0;entryDy=0;" edge="1" parent="1" source="hMHtxvA4B3zZOopVQEFz-38" target="hMHtxvA4B3zZOopVQEFz-21">
          <mxGeometry width="50" height="50" relative="1" as="geometry">
            <mxPoint x="796" y="539" as="sourcePoint" />
            <mxPoint x="845" y="490" as="targetPoint" />
          </mxGeometry>
        </mxCell>
        <mxCell id="hMHtxvA4B3zZOopVQEFz-97" value="major" style="edgeLabel;html=1;align=center;verticalAlign=middle;resizable=0;points=[];" vertex="1" connectable="0" parent="hMHtxvA4B3zZOopVQEFz-96">
          <mxGeometry x="-0.0022" relative="1" as="geometry">
            <mxPoint as="offset" />
          </mxGeometry>
        </mxCell>
        <mxCell id="hMHtxvA4B3zZOopVQEFz-105" value="reputation" style="shape=image;verticalLabelPosition=bottom;verticalAlign=top;imageAspect=0;aspect=fixed;image=data:image/svg+xml,PHN2ZyB4bWxuczp4bGluaz0iaHR0cDovL3d3dy53My5vcmcvMTk5OS94bGluayIgeG1sbnM9Imh0dHA6Ly93d3cudzMub3JnLzIwMDAvc3ZnIiB4bWw6c3BhY2U9InByZXNlcnZlIiBzdHlsZT0iZW5hYmxlLWJhY2tncm91bmQ6bmV3IDAgMCAzNS41IDYwLjE7IiB2aWV3Qm94PSIwLjMwMDAwMTE0NDQwOTE3OTcgMC40OTE1MTAyMTI0MjE0MTcyNCAzNC42OTk5OTY5NDgyNDIxOSA0MC4yMDg0OTIyNzkwNTI3MzQiIHk9IjBweCIgeD0iMHB4IiBpZD0iTGF5ZXJfMSIgdmVyc2lvbj0iMS4xIiB3aWR0aD0iMzQuNjk5OTk2OTQ4MjQyMTkiIGhlaWdodD0iNDAuMjA4NDkyMjc5MDUyNzM0Ij4mI3hhOyAgPHN0eWxlIHR5cGU9InRleHQvY3NzIj4mI3hhOyAgICAuc3QwIHsmI3hhOyAgICAgIGZpbGw6ICNGRkZGRkY7JiN4YTsgICAgICBzdHJva2U6ICMxRDFEMUI7JiN4YTsgICAgICBzdHJva2UtbWl0ZXJsaW1pdDogMTA7JiN4YTsgICAgICBzdHJva2UtZGFzaGFycmF5OiAyLCAxOyYjeGE7ICAgIH0mI3hhOyYjeGE7ICAgIC5zdDEgeyYjeGE7ICAgICAgZmlsbDogI0ZGRkZGRjsmI3hhOyAgICAgIHN0cm9rZTogIzAwMDAwMDsmI3hhOyAgICAgIHN0cm9rZS1taXRlcmxpbWl0OiAxMDsmI3hhOyAgICAgIHN0cm9rZS1kYXNoYXJyYXk6IDIsIDE7JiN4YTsgICAgfSYjeGE7ICA8L3N0eWxlPiYjeGE7ICA8Zz4mI3hhOyAgICA8Zz4mI3hhOyAgICAgIDxwYXRoIGQ9Ik0xNS45LDQuMWMwLDAsMC43LTMuNCwxLjctMy42YzEtMC4yLDEuMywzLjIsMS4zLDMuMnMxLjgtMS44LDMtMi4yYzEuMi0wLjQsMi4yLTAuMSwxLjMsMSYjOTsmIzk7JiM5O2MtMC45LDEuMS0yLDQuNS0yLDYuMWMwLjEsMy45LDMuNyw1LjIsNS45LDYuNmM2LjYsNC40LDcuOSw4LjYsNy45LDEzLjRjMCw2LjktNi43LDEyLjEtMTcuMywxMi4xYy0xMS44LDAtMTcuNC02LjItMTcuNC0xMi41JiM5OyYjOTsmIzk7YzAtNS41LDMtOS41LDcuMS0xMS45YzQuNC0yLjUsNi43LTMuNCw4LjUtNC44YzEuOC0xLjQtMS45LTUuNS0zLjUtNi41Yy0xLjItMC44LTEuMi0xLTMuMy0xLjhjMCwwLDEuOC0xLjYsMy42LTEuMSYjOTsmIzk7JiM5O0MxNS4xLDIuOCwxNyw1LjQsMTcsNS40IiBjbGFzcz0ic3QwIi8+JiN4YTsgICAgPC9nPiYjeGE7ICAgIDxnPiYjeGE7ICAgICAgPHBhdGggZD0iTTIyLjcsNi41YzAtMC4zLTAuMi0wLjgtMS44LTAuNmMtMS44LDAuMy01LjYsMS4yLTYuNCwxLjZjLTAuNywwLjQtMSwwLjgtMC43LDEuMmMwLjMsMC40LDQuNi0wLjIsNC42LTAuMiYjOTsmIzk7JiM5O3MtNC4zLDEuMy00LjEsMS44YzAuMiwwLjYsMSwwLjYsMywwLjJjMS4xLTAuMiwzLjYtMC44LDQuNy0xLjFjMS4xLTAuNCwxLjItMS4xLDEuMi0xLjRjLTAuMS0wLjUtNS4xLDAuOC01LjEsMC44JiM5OyYjOTsmIzk7UzIyLjgsNi44LDIyLjcsNi41eiIgY2xhc3M9InN0MSIvPiYjeGE7ICAgIDwvZz4mI3hhOyAgICA8Zz4mI3hhOyAgICAgIDxwYXRoIGQ9Ik0xNy43LDM3di0yYy0xLTAuMS0xLjgtMC40LTIuNS0wLjdjLTAuNi0wLjMtMS4yLTAuOC0xLjYtMS42Yy0wLjUtMC43LTAuNy0xLjYtMC44LTIuNmwyLTAuNGMwLjIsMS4xLDAuNCwxLjksMC44LDIuNCYjOTsmIzk7JiM5O2MwLjYsMC43LDEuMiwxLjEsMiwxLjJ2LTYuM2MtMC44LTAuMi0xLjctMC42LTIuNS0xYy0wLjYtMC40LTEuMS0wLjktMS41LTEuNWMtMC4zLTAuNi0wLjUtMS40LTAuNS0yLjJjMC0xLjQsMC41LTIuNiwxLjUtMy41JiM5OyYjOTsmIzk7YzAuNy0wLjYsMS43LTEsMy0xLjF2LTFoMS4ydjFjMS4yLDAuMSwyLjEsMC41LDIuOCwxYzAuOSwwLjcsMS40LDEuNywxLjYsM0wyMS4xLDIyYy0wLjEtMC44LTAuNC0xLjQtMC43LTEuOCYjOTsmIzk7JiM5O2MtMC40LTAuNC0wLjktMC43LTEuNi0wLjh2NS44YzEsMC4zLDEuNywwLjUsMiwwLjZjMC42LDAuMywxLjEsMC42LDEuNSwxczAuNywwLjksMC45LDEuNGMwLjIsMC41LDAuMywxLjEsMC4zLDEuOCYjOTsmIzk7JiM5O2MwLDEuNC0wLjQsMi42LTEuMywzLjVjLTAuOSwwLjktMiwxLjQtMy40LDEuNVYzN0gxNy43eiBNMTcuNywxOS4zYy0wLjgsMC4xLTEuNCwwLjQtMS44LDAuOWMtMC40LDAuNS0wLjcsMS4xLTAuNywxLjgmIzk7JiM5OyYjOTtjMCwwLjcsMC4yLDEuMywwLjYsMS43YzAuNCwwLjUsMSwwLjgsMS45LDFWMTkuM3ogTTE4LjgsMzMuMmMwLjgtMC4xLDEuNC0wLjQsMS45LTFjMC41LTAuNiwwLjgtMS4zLDAuOC0yLjImIzk7JiM5OyYjOTtjMC0wLjctMC4yLTEuMy0wLjUtMS44Yy0wLjQtMC40LTEuMS0wLjgtMi4yLTEuMVYzMy4yeiIvPiYjeGE7ICAgIDwvZz4mI3hhOyAgPC9nPiYjeGE7PC9zdmc+" vertex="1" parent="1">
          <mxGeometry x="670" y="410" width="35" height="40" as="geometry" />
        </mxCell>
        <mxCell id="hMHtxvA4B3zZOopVQEFz-106" value="" style="endArrow=classic;html=1;rounded=0;exitX=1;exitY=0.5;exitDx=0;exitDy=0;entryX=0;entryY=0.5;entryDx=0;entryDy=0;" edge="1" parent="1" source="hMHtxvA4B3zZOopVQEFz-20" target="hMHtxvA4B3zZOopVQEFz-105">
          <mxGeometry width="50" height="50" relative="1" as="geometry">
            <mxPoint x="660" y="389" as="sourcePoint" />
            <mxPoint x="813" y="280" as="targetPoint" />
          </mxGeometry>
        </mxCell>
        <mxCell id="hMHtxvA4B3zZOopVQEFz-107" value="catastrophic" style="edgeLabel;html=1;align=center;verticalAlign=middle;resizable=0;points=[];" vertex="1" connectable="0" parent="hMHtxvA4B3zZOopVQEFz-106">
          <mxGeometry x="0.4171" y="1" relative="1" as="geometry">
            <mxPoint x="-29" y="9" as="offset" />
          </mxGeometry>
        </mxCell>
        <mxCell id="hMHtxvA4B3zZOopVQEFz-108" value="" style="endArrow=classic;html=1;rounded=0;exitX=1;exitY=0.5;exitDx=0;exitDy=0;entryX=0;entryY=0.75;entryDx=0;entryDy=0;" edge="1" parent="1" source="hMHtxvA4B3zZOopVQEFz-35" target="hMHtxvA4B3zZOopVQEFz-105">
          <mxGeometry width="50" height="50" relative="1" as="geometry">
            <mxPoint x="650" y="570" as="sourcePoint" />
            <mxPoint x="802" y="645" as="targetPoint" />
          </mxGeometry>
        </mxCell>
        <mxCell id="hMHtxvA4B3zZOopVQEFz-109" value="minor" style="edgeLabel;html=1;align=center;verticalAlign=middle;resizable=0;points=[];" vertex="1" connectable="0" parent="hMHtxvA4B3zZOopVQEFz-108">
          <mxGeometry x="0.0155" relative="1" as="geometry">
            <mxPoint x="15" y="6" as="offset" />
          </mxGeometry>
        </mxCell>
        <mxCell id="hMHtxvA4B3zZOopVQEFz-110" value="" style="endArrow=classic;html=1;rounded=0;exitX=1;exitY=0.75;exitDx=0;exitDy=0;entryX=0;entryY=0.25;entryDx=0;entryDy=0;" edge="1" parent="1" source="hMHtxvA4B3zZOopVQEFz-19" target="hMHtxvA4B3zZOopVQEFz-105">
          <mxGeometry width="50" height="50" relative="1" as="geometry">
            <mxPoint x="600" y="300" as="sourcePoint" />
            <mxPoint x="744" y="316" as="targetPoint" />
          </mxGeometry>
        </mxCell>
        <mxCell id="hMHtxvA4B3zZOopVQEFz-111" value="major" style="edgeLabel;html=1;align=center;verticalAlign=middle;resizable=0;points=[];" vertex="1" connectable="0" parent="hMHtxvA4B3zZOopVQEFz-110">
          <mxGeometry x="-0.3187" y="2" relative="1" as="geometry">
            <mxPoint as="offset" />
          </mxGeometry>
        </mxCell>
        <mxCell id="hMHtxvA4B3zZOopVQEFz-112" value="" style="endArrow=classic;html=1;rounded=0;exitX=1;exitY=0.5;exitDx=0;exitDy=0;entryX=0;entryY=0.5;entryDx=0;entryDy=0;" edge="1" parent="1" source="hMHtxvA4B3zZOopVQEFz-21" target="hMHtxvA4B3zZOopVQEFz-105">
          <mxGeometry width="50" height="50" relative="1" as="geometry">
            <mxPoint x="660" y="300" as="sourcePoint" />
            <mxPoint x="804" y="316" as="targetPoint" />
          </mxGeometry>
        </mxCell>
        <mxCell id="hMHtxvA4B3zZOopVQEFz-113" value="major" style="edgeLabel;html=1;align=center;verticalAlign=middle;resizable=0;points=[];" vertex="1" connectable="0" parent="hMHtxvA4B3zZOopVQEFz-112">
          <mxGeometry x="-0.3187" y="2" relative="1" as="geometry">
            <mxPoint as="offset" />
          </mxGeometry>
        </mxCell>
      </root>
    </mxGraphModel>
  </diagram>
</mxfile>
